<?xml version="1.0" encoding="UTF-8"?>
<svg width="49px" height="50px" viewBox="0 0 49 50" version="1.1" xmlns="http://www.w3.org/2000/svg" xmlns:xlink="http://www.w3.org/1999/xlink">
    <title>头像 女孩</title>
    <defs>
        <rect id="path-1" x="0" y="0" width="750" height="1334"></rect>
    </defs>
    <g id="用户端" stroke="none" stroke-width="1" fill="none" fill-rule="evenodd">
        <g id="移动端" transform="translate(-1731.000000, -319.000000)">
            <g id="编组-4" transform="translate(1712.000000, 135.000000)">
                <mask id="mask-2" fill="white">
                    <use xlink:href="#path-1"></use>
                </mask>
                <use id="蒙版" fill="#FBFBFB" xlink:href="#path-1"></use>
            </g>
            <path d="M2456,253.5 C2457.24264,253.5 2458.36764,254.00368 2459.18198,254.818019 C2459.99632,255.632359 2460.5,256.757359 2460.5,258 L2460.5,258 L2460.5,1374 C2460.5,1375.24264 2459.99632,1376.36764 2459.18198,1377.18198 C2458.36764,1377.99632 2457.24264,1378.5 2456,1378.5 L2456,1378.5 L1716,1378.5 C1714.75736,1378.5 1713.63236,1377.99632 1712.81802,1377.18198 C1712.00368,1376.36764 1711.5,1375.24264 1711.5,1374 L1711.5,1374 L1711.5,258 C1711.5,256.757359 1712.00368,255.632359 1712.81802,254.818019 C1713.63236,254.00368 1714.75736,253.5 1716,253.5 L1716,253.5 Z" id="矩形" stroke="#F3F3F3" fill="#FFFFFF"></path>
            <rect id="矩形" fill="#F8FBFF" x="1710.75853" y="299.642704" width="286" height="90"></rect>
            <g id="编组-37" transform="translate(1731.000000, 319.642704)" fill-rule="nonzero">
                <g id="头像-女孩" transform="translate(0.000000, 0.000000)">
                    <path d="M24.4999003,0 C10.9699261,0 4.54747351e-13,11.0637442 4.54747351e-13,24.7094309 C4.54747351e-13,33.1130103 4.16147394,40.5358938 10.5181294,45 C10.5450458,44.9052886 10.5751523,44.812588 10.6038631,44.7192841 C10.6220067,44.6605671 10.6389541,44.6012468 10.6576959,44.5429318 C10.7216971,44.3432536 10.7890878,44.1455862 10.8612636,43.950935 C10.8650518,43.9404786 10.8696376,43.9302232 10.8734258,43.9199678 C10.9420127,43.7361753 11.0145873,43.5547959 11.090352,43.3752262 C11.1136796,43.3201287 11.1382034,43.2658355 11.1621291,43.2111402 C11.3085641,42.8751492 11.4687377,42.5454208 11.6422378,42.2228031 C11.6665622,42.1775588 11.6898898,42.1319123 11.714613,42.0870702 C11.9111885,41.7307398 12.123886,41.3837022 12.3520331,41.0470541 C12.3825383,41.0020109 12.4142398,40.9579731 12.4451439,40.913332 C12.565614,40.7405468 12.6899261,40.5705192 12.8179858,40.4033782 C12.8658371,40.3410416 12.9134891,40.2789061 12.9623374,40.2175749 L12.9709108,23.7405993 L12.9741009,23.7405993 C12.970512,23.622964 12.9653281,23.505932 12.9653281,23.3872914 C12.9653281,22.8942289 12.9992228,22.4094109 13.0582395,21.9324351 C13.0648191,21.8753267 13.0723955,21.8188216 13.0797726,21.7619143 C13.0913367,21.6780615 13.1032996,21.5944098 13.116658,21.5109592 C13.4352684,19.4190629 14.3193224,17.5403177 15.5855892,16.004625 C17.7012178,13.4092097 20.9088545,11.7534687 24.5000997,11.7534687 C29.3944971,11.4172532 36.458954,16.0683692 36.052018,23.7405993 C36.0502236,23.7416047 36.0482298,23.7426101 36.0466347,23.7438166 L36.0548093,40.2290368 C36.1070471,40.2945908 36.1574904,40.3613514 36.2083325,40.4279108 C36.2324576,40.459079 36.2561839,40.4908506 36.2799102,40.52222 C36.3884407,40.6667812 36.4940675,40.8135368 36.5967261,40.962397 C36.6104833,40.9825055 36.6248387,41.002212 36.638596,41.0223205 C36.8789355,41.3755955 37.1023002,41.7403169 37.307917,42.1152222 L37.3244656,42.1461894 C37.4334191,42.3461966 37.5371986,42.5490267 37.6356989,42.7544742 C37.7206351,42.9308265 37.8021818,43.1093907 37.8799402,43.2901669 L37.8998784,43.3358134 C38.0728964,43.7425693 38.2265939,44.1574109 38.3604477,44.5789262 C38.3650335,44.5930022 38.3692205,44.6076815 38.3736069,44.6219586 C38.4124861,44.7460286 38.4521629,44.8698975 38.487852,44.9959783 C38.486257,44.9969837 38.4846619,44.9979891 38.4834656,44.9991957 C44.8393236,40.5350895 49,33.1128092 49,24.7098331 C49,11.0635431 38.0300739,0 24.4999003,0 Z" id="路径" fill="#0D72ED"></path>
                    <path d="M13.2445131,39.7211618 C13.3794497,39.5712658 13.5181146,39.4243859 13.6603926,39.2806444 L13.6690957,39.272248 C13.8064508,39.134515 13.9470462,38.9996837 14.0907772,38.8678545 C14.1367788,38.8252868 14.1840238,38.7840859 14.230647,38.7422992 C14.387609,38.6017094 14.5480369,38.464596 14.7117991,38.3310715 C14.7256825,38.3197461 14.7391514,38.3080302 14.753242,38.2967049 L14.753242,38.2984623 C15.960681,37.3231144 17.3589646,36.5356114 18.9120374,35.9658287 C19.0141942,35.9285331 19.1165582,35.8914328 19.2199582,35.8558945 C19.3210789,35.8211374 19.4228212,35.7871613 19.5251852,35.7541616 C19.6287924,35.7209665 19.733643,35.6891384 19.8384936,35.6577008 C19.9404431,35.6270442 20.0419782,35.5961924 20.145171,35.5672931 C20.2711575,35.5321455 20.3988016,35.4997315 20.5264458,35.4673175 C20.6756402,35.4296314 20.8256635,35.3935074 20.9771373,35.3593361 C21.1095474,35.3296558 21.2421647,35.2997803 21.3762325,35.2728338 C21.4761099,35.2527215 21.5770234,35.2349524 21.6779368,35.2165975 C21.9007487,35.1755292 22.1244516,35.1388765 22.3488975,35.1066634 C22.4858274,35.0870089 22.6230142,35.068978 22.7604255,35.0525751 C22.8486988,35.0418355 22.9363506,35.0305102 23.0252457,35.0209421 C23.2533721,34.9963212 23.4819702,34.9757497 23.7109185,34.9592384 L25,34.9592384 L25,34.953771 L24.991297,34.9539663 C18.4926352,34.9539663 13.2053496,30.0801562 13.0122256,24 L13.0089102,24 L13,40 C13.0464161,39.9457164 13.0942826,39.8926043 13.1415275,39.8391018 C13.1757179,39.7996583 13.2094938,39.7598242 13.2445131,39.7211618 L13.2445131,39.7211618 Z" id="路径" fill="#161616"></path>
                    <path d="M24.4994035,12.0113301 L24.5043748,12 C20.9223945,12 17.7232107,13.6365105 15.6133562,16.202292 C17.7806799,13.5975508 21.060599,11.987676 24.4994035,12.0113301 L24.4994035,12.0113301 Z M13.1199457,21.8932062 C13.1428439,21.8101185 13.1707381,21.7276271 13.196967,21.6451356 C13.1694891,21.7276271 13.1440929,21.8103173 13.1199457,21.8932062 Z M24.5043748,35 L24.5127267,34.9998012 C30.7402777,34.9954282 35.8069115,30.0439551 36,23.8644531 C32.9441908,25.7381016 24.9818264,22.9926281 22.6212153,18.8129964 C19.3295637,24.226819 16.0659508,25.6746925 13.0280386,23.8435817 C13.0028549,23.2488682 13.0244641,22.6530961 13.0926666,22.061767 C13.0319874,22.5387616 13.0010388,23.0190662 13,23.4999006 C13,23.6169788 13.0053691,23.7328643 13.0087496,23.8491474 C13.1938839,30.0385882 18.2678754,35 24.5043748,35 L24.5043748,35 Z" id="形状" fill="#FCE9EA"></path>
                    <path d="M24.8240038,12.0278461 C25.1023233,13.9883255 24.4308896,16.262608 23.0005778,18.7888422 L23,18.7898302 C25.2864572,22.9449557 32.9986999,25.6743319 35.958517,23.811669 C35.771494,29.9549391 30.8642109,34.8771829 24.8320934,34.881728 L24.8320934,34.887261 L26.0251114,34.887261 C26.2390996,34.9036626 26.4509691,34.925202 26.6614903,34.9497055 C26.7446972,34.9593883 26.8267485,34.9710473 26.9093776,34.9819158 C27.0364993,34.9987126 27.1628506,35.0164974 27.288624,35.0360606 C27.3833875,35.0508813 27.4775731,35.06669 27.5715661,35.0830916 C27.68482,35.1032477 27.7973035,35.1245895 27.9094017,35.1469193 C28.0049356,35.1658898 28.1006621,35.1842674 28.1954255,35.205214 C28.3146503,35.2312984 28.4321416,35.2601493 28.550018,35.2890002 C28.7023715,35.3261507 28.8531841,35.3656725 29.0032262,35.407368 C29.1137836,35.4381951 29.2247261,35.4686268 29.3343205,35.5018252 C29.4335139,35.5318617 29.5311665,35.5644673 29.6292043,35.5964799 C29.7228121,35.6271093 29.8162273,35.6581339 29.9086794,35.6903442 C30.0069098,35.7249258 30.1043698,35.7602978 30.2014446,35.7964602 C30.2935115,35.8310418 30.3844228,35.8668091 30.4753341,35.9031691 C31.8929337,36.4685286 33.1718551,37.2475035 34.2805104,38.2098596 L34.2805104,38.2049194 C34.3188396,38.2381176 34.3558204,38.2732921 34.3937643,38.3070833 C34.5494142,38.445819 34.701999,38.5881336 34.8514025,38.7339188 C34.8854942,38.7673147 34.9197785,38.8001179 34.9534851,38.8337114 C35.2358634,39.1162868 35.5052309,39.4122321 35.7607079,39.7205808 C35.7791983,39.7425154 35.7969183,39.7654381 35.8150235,39.7877679 C35.8726135,39.8581167 35.9303961,39.9284655 35.9864452,40 L35.9785482,23.7998125 L35.9837487,23.7966507 C36.376863,16.257075 29.5521608,11.6863777 24.8241965,12.01678 L24.8193812,12.0280438 L24.8240038,12.0278461 L24.8240038,12.0278461 Z" id="路径" fill="#161616"></path>
                    <path d="M33.8807592,38.2412085 C32.7236303,37.2843911 31.3887909,36.5098996 29.9092099,35.947794 C29.9472046,35.9621365 29.9849982,35.9768718 30.0227919,35.9916073 L30.0227919,42.3113167 L17.8966606,42.3113167 L17.8966606,36.0344381 C17.9684283,36.0057532 18.0410001,35.9784436 18.1133709,35.9507411 C16.6066508,36.5240456 15.2501002,37.3164161 14.0786982,38.2977923 L14.0786982,46.9669106 C17.1184733,48.2730546 20.4776851,49 24.0109888,49 C27.941528,49 31.6565629,48.1011419 34.9556667,46.5048091 C34.6013391,46.6750525 34.2428656,46.8369267 33.8805581,46.9902907 L33.8805581,38.2412085 L33.8807592,38.2412085 Z M37.5168039,43.0131887 L37.5584371,43.1076959 L37.5168039,43.0131887 Z M38.0047454,44.2736086 C38.014321,44.3027518 38.023064,44.333144 38.0322233,44.3627034 C38.023064,44.3331439 38.0143211,44.303168 38.0047454,44.2736086 Z M11.7624303,40.8200963 C11.7951926,40.7760866 11.8292396,40.7330593 11.8624303,40.6894426 C11.8290255,40.7328628 11.7951926,40.7760866 11.7624303,40.8200963 Z M10.278619,43.700678 C10.2865293,43.6790288 10.2961049,43.6577959 10.3040152,43.636563 C10.2961049,43.6582122 10.2865293,43.6790288 10.278619,43.700678 Z M10,44.4080629 C10.0337037,44.3506932 10.0651852,44.292734 10.1,44.2357572 C10.0651852,44.2929305 10.0337037,44.3506932 10,44.4080629 Z M11.0467634,41.96867 C11.0803722,41.9244639 11.1126036,41.8798648 11.1467634,41.8360516 C11.1126036,41.8798648 11.0800967,41.9246603 11.0467634,41.96867 Z M10.4905133,43.0948459 C10.5230133,43.0410127 10.5571799,42.9879653 10.5905133,42.934525 C10.55718,42.9879653 10.5230133,43.0408162 10.4905133,43.0948459 Z M36.9416778,41.8732293 L36.9762333,41.9373443 C36.964576,41.9165277 36.9537514,41.8944622 36.9416778,41.8732293 Z M35.8160752,40.2153564 C35.84978,40.2484054 35.8829276,40.2820941 35.9160752,40.3153564 C35.8829276,40.2818809 35.84978,40.2484054 35.8160752,40.2153564 Z M36.210932,40.7375782 C36.2396589,40.7711352 36.2696347,40.8040211 36.2983616,40.8375782 C36.2696347,40.8040211 36.2396589,40.7707997 36.210932,40.7375782 Z M20.504221,35.2968791 C20.6009165,35.2611153 20.6990191,35.2298653 20.7969208,35.1968791 C20.6990191,35.2291708 20.6011175,35.2611153 20.504221,35.2968791 Z M21.8469006,35.0758594 C21.9325394,35.0529612 22.0177761,35.028814 22.103817,35.0084138 C22.0175751,35.028814 21.9323383,35.0529612 21.8469006,35.0758594 Z M13.0574885,39.2992742 L13.0400025,39.3171765 L13.0574885,39.2992742 Z M13.4362063,38.8707039 C13.4808349,38.827873 13.5266698,38.7864175 13.5719015,38.7443725 C13.5266698,38.7864175 13.4808349,38.827873 13.4362063,38.8707039 Z M12.6151996,39.7292853 C12.5812255,39.7681867 12.5484576,39.808267 12.5148856,39.8477577 C12.5484576,39.8082669 12.5812255,39.7681867 12.6151996,39.7292853 Z M19.0121762,35.6495459 C19.1110829,35.6156366 19.2095877,35.5815113 19.3097006,35.5495459 C19.2097887,35.5815113 19.111284,35.6156366 19.0121762,35.6495459 Z M34.4766122,38.762055 C34.5121945,38.7955203 34.5479778,38.8283916 34.583158,38.862055 C34.5479778,38.8283916 34.5119934,38.7955203 34.4766122,38.762055 Z M25.9288153,35.0083038 C26.0156603,35.028704 26.1012991,35.0532676 26.187541,35.0761658 C26.1015001,35.0532676 26.0156603,35.028704 25.9288153,35.0083038 Z M28.718308,35.54876 C28.8218385,35.5804928 28.9237607,35.6149396 29.026085,35.64876 C28.9239617,35.6149395 28.8218385,35.5804928 28.718308,35.54876 L28.718308,35.54876 Z M35.5258759,39.8430383 C35.492188,39.809803 35.4595639,39.7756854 35.4258759,39.7430383 C35.4595639,39.7759795 35.492188,39.809803 35.5258759,39.8430383 Z M27.2312889,35.1960932 C27.3309998,35.2289746 27.4309117,35.2601611 27.5298185,35.2960932 C27.4309117,35.2601611 27.3309998,35.2282967 27.2312889,35.1960932 Z" id="形状" fill="#F08519"></path>
                    <path d="M30.2663791,35.7950181 C30.1705742,35.7631313 30.0737712,35.7326139 29.9767687,35.7020964 C29.8751755,35.6704052 29.7737819,35.6381272 29.6711908,35.6083923 C29.5578216,35.5755274 29.442656,35.5455968 29.3280892,35.5148838 C29.1721604,35.473478 29.015594,35.4344138 28.8584453,35.3977047 C28.7363117,35.3685859 28.6138185,35.3409356 28.4909933,35.3147599 C28.3927932,35.2942193 28.2935951,35.2760262 28.1945967,35.2570506 C27.9809299,35.2162934 27.7664574,35.1797044 27.5513062,35.1473053 C27.4211711,35.1277428 27.2900381,35.1103322 27.1583063,35.0937042 C27.0726806,35.0829448 26.9876537,35.071403 26.9014292,35.0618174 C26.6820354,35.0370633 26.4621755,35.0164537 26.2419717,35 L23.7640161,35 C23.5434896,35.0165602 23.3232991,35.0371696 23.1035606,35.0618174 C23.0181345,35.071403 22.9335068,35.0827492 22.8484799,35.0935085 C22.619072,35.1222265 22.3902895,35.1555549 22.1622768,35.1934727 C22.0432224,35.2136858 21.9243909,35.2351405 21.8058025,35.2578331 C21.7087999,35.2764175 21.6113982,35.2942193 21.5151941,35.314173 C21.2408335,35.3728423 20.967914,35.4378075 20.6966603,35.509015 C20.5737106,35.5414887 20.4507609,35.5739624 20.3294079,35.6091748 C20.2300103,35.6379316 20.1322094,35.6690359 20.0340093,35.6997489 C19.9330149,35.7312445 19.8320205,35.7631313 19.7322237,35.7963875 C19.6336244,35.829448 19.5356239,35.8634867 19.4382222,35.8983079 C19.3386249,35.9341071 19.2400256,35.9710802 19.1416259,36.0084444 C19.0697722,36.0360275 18.9977189,36.0632193 18.9264639,36.0917805 L18.9264639,42.341593 L30.965955,42.341593 L30.965955,36.0491343 L30.8531846,36.0055101 C30.7589533,35.9693345 30.6643408,35.9341202 30.5693624,35.8998728 C30.4687187,35.8639551 30.3677195,35.8290019 30.2663791,35.7950181 L30.2663791,35.7950181 Z M24.9973054,40.7945943 C24.5941299,40.7945943 24.2672915,40.4742555 24.2672915,40.0790975 C24.2672915,39.6839396 24.5941299,39.3636008 24.9973054,39.3636008 C25.400481,39.3636008 25.7273194,39.6839396 25.7273194,40.0790975 C25.7273194,40.4742555 25.400481,40.7945943 24.9973054,40.7945943 L24.9973054,40.7945943 Z M24.9973054,38.2051123 C24.5941299,38.2051123 24.2672915,37.8847735 24.2672915,37.4896156 C24.2672915,37.0944577 24.5941299,36.7741189 24.9973054,36.7741189 C25.400481,36.7741189 25.7273194,37.0944577 25.7273194,37.4896156 C25.7273194,37.8847735 25.400481,38.2051123 24.9973054,38.2051123 L24.9973054,38.2051123 Z M15.1359803,38.3455707 L15.1359803,38.3438101 L15.0960616,38.37824 C14.9383478,38.512039 14.7838208,38.6494043 14.632605,38.7902253 C14.5876965,38.8320889 14.5421891,38.8733657 14.4978793,38.9160119 C14.3595339,39.0481819 14.2241114,39.1832594 14.0917061,39.3211503 L14.0833232,39.3295621 C13.9462778,39.4735685 13.8127126,39.6207189 13.6827387,39.7708911 C13.6490073,39.8096248 13.6164736,39.8495322 13.5831414,39.8888527 C13.5376341,39.9424538 13.4917275,39.9956637 13.446819,40.0500473 C13.3979185,40.1097127 13.3502156,40.1701607 13.3023132,40.2308043 C13.1740229,40.3933364 13.0495763,40.5587484 12.9290729,40.7269081 C12.8981359,40.7703368 12.8664005,40.8131786 12.8358627,40.8569985 C12.6074719,41.1845034 12.3945473,41.5221158 12.1977617,41.8687685 C12.1730121,41.9123928 12.14946,41.9567996 12.1253092,42.0008151 C12.0223738,42.1873212 11.9238809,42.37615 11.8299105,42.5671482 C11.7660406,42.6974341 11.7045657,42.829285 11.6446876,42.9623097 C11.6207364,43.0155196 11.5961863,43.0683382 11.5728338,43.1219393 C11.4969882,43.296632 11.4241365,43.4730854 11.3556759,43.6518862 C11.351684,43.6620586 11.347293,43.6720355 11.3435007,43.6820123 C11.2712757,43.8724988 11.2033309,44.064518 11.1397155,44.257931 C11.1209538,44.3146621 11.1039883,44.3723713 11.0858253,44.4294937 C11.0570838,44.5204591 11.0269451,44.610642 11,44.7025855 L11.0630716,44.7454273 C11.2736429,44.8884288 11.4866094,45.028496 11.7019709,45.1652375 C11.7243254,45.1793225 11.7460811,45.1939943 11.7684356,45.2080793 C11.9818013,45.342669 12.1983604,45.472368 12.4161172,45.6003065 C12.6714837,45.7500509 12.9295322,45.8953575 13.1901415,46.0361579 C13.5456231,46.2274255 13.9056571,46.4104505 14.2699433,46.5850804 C14.4461845,46.6691989 14.6236233,46.7513613 14.8022596,46.8315673 C14.912635,46.8810603 15.0238086,46.9291839 15.1351819,46.977112 L15.1351819,38.3455707 L15.1359803,38.3455707 Z M39,44.6984774 C38.9640731,44.5758208 38.9245536,44.4553161 38.8856328,44.3346158 C38.8812418,44.3207264 38.8770503,44.3064458 38.8724596,44.2927521 C38.7385178,43.8826661 38.5846552,43.4790887 38.4113982,43.0834013 L38.3914388,43.0389945 C38.3137464,42.8635877 38.2322269,42.6898332 38.1469366,42.5178508 L38.1088142,42.4409703 C38.0215672,42.2673793 37.9303969,42.095709 37.8353709,41.9260866 L37.8188046,41.8959604 C37.6129681,41.5312372 37.3893648,41.1764214 37.1487686,40.832741 C37.1349966,40.8131786 37.1206259,40.7940073 37.1068539,40.7744449 C37.0041335,40.6295944 36.8983931,40.4868236 36.7896995,40.3462228 C36.7659479,40.3157054 36.7421963,40.2849923 36.7180454,40.2544749 C36.667149,40.1897232 36.6166518,40.1247759 36.5643583,40.0610023 C36.5062765,39.9901862 36.4463984,39.9205439 36.3867199,39.8509015 C36.3677585,39.8287959 36.3493959,39.8061035 36.3304345,39.7843892 C36.0657398,39.4790957 35.7866016,39.1861204 35.4939373,38.9064263 C35.4590084,38.8731701 35.4232811,38.8406964 35.3881527,38.8076359 C35.2334313,38.6632091 35.0753105,38.5223215 34.9139181,38.3850869 C34.8745981,38.3516351 34.8362761,38.3168139 34.796557,38.283949 L34.796557,47 C35.159677,46.8458914 35.5189188,46.6831489 35.8739637,46.5119168 C36.9586627,45.9845393 38.0021186,45.3793246 38.9958085,44.7012161 L39,44.6984774 L39,44.6984774 Z" id="形状" fill="#FEFEFE"></path>
                    <path d="M24,37.5 C23.9999542,37.6786175 24.0952437,37.8436865 24.249963,37.9330085 C24.4046823,38.0223305 24.5953177,38.0223305 24.750037,37.9330085 C24.9047563,37.8436865 25.0000458,37.6786175 25,37.5 C25.0000458,37.3213825 24.9047563,37.1563135 24.750037,37.0669915 C24.5953177,36.9776695 24.4046823,36.9776695 24.249963,37.0669915 C24.0952437,37.1563135 23.9999542,37.3213825 24,37.5 Z" id="路径" fill="#F08519"></path>
                    <path d="M24,39.5 C23.9999542,39.6786175 24.0952437,39.8436865 24.249963,39.9330085 C24.4046823,40.0223305 24.5953177,40.0223305 24.750037,39.9330085 C24.9047563,39.8436865 25.0000458,39.6786175 25,39.5 C25.0000458,39.3213825 24.9047563,39.1563135 24.750037,39.0669915 C24.5953177,38.9776695 24.4046823,38.9776695 24.249963,39.0669915 C24.0952437,39.1563135 23.9999542,39.3213825 24,39.5 L24,39.5 Z" id="路径" fill="#F08519"></path>
                    <path d="M13.0106218,23.2226969 C16.1667816,25.1139532 19.5574273,23.6185651 22.977203,18.0263105 L22.9778228,18.0252839 C24.5120011,15.4003984 25.2323997,13.0375086 24.9336625,11.0002656 L24.9284977,11.0002656 C21.3558413,10.9758319 17.9482548,12.6385605 15.6965702,15.3291503 C14.3842754,16.8972237 13.4684375,18.8155831 13.1382979,20.9515878 C13.1252823,21.036798 13.1114404,21.1218029 13.1000777,21.2078344 C13.0924336,21.2657363 13.084583,21.3236382 13.0777654,21.3819507 C13.0068122,21.9928307 12.9843616,22.6083144 13.0106218,23.2226969 L13.0106218,23.2226969 Z" id="路径" fill="#161616"></path>
                </g>
            </g>
        </g>
    </g>
</svg>