<?xml version="1.0" encoding="UTF-8"?>
<svg width="44px" height="44px" viewBox="0 0 44 44" version="1.1" xmlns="http://www.w3.org/2000/svg" xmlns:xlink="http://www.w3.org/1999/xlink">
    <title>编组 71</title>
    <defs>
        <radialGradient cx="46.9091818%" cy="0%" fx="46.9091818%" fy="0%" r="182.285983%" id="radialGradient-1">
            <stop stop-color="#FF681D" offset="0%"></stop>
            <stop stop-color="#CB0000" offset="100%"></stop>
        </radialGradient>
    </defs>
    <g id="用户端" stroke="none" stroke-width="1" fill="none" fill-rule="evenodd">
        <g id="pc端" transform="translate(-1393.000000, -2551.000000)">
            <g id="编组-71" transform="translate(1393.000000, 2551.000000)">
                <rect id="矩形" fill="url(#radialGradient-1)" x="0" y="0" width="44" height="44" rx="3"></rect>
                <g id="全部-(1)" transform="translate(10.831999, 10.984147)" fill="#FFFFFF" fill-rule="nonzero">
                    <path d="M9.80144794,0.290590861 L0.688229829,4.42949166 C0.269080998,4.62012799 0,5.0381155 0,5.49858043 C0,5.95904536 0.269080998,6.37703287 0.688229829,6.56766919 L9.79533886,10.70657 C10.7272255,11.1335651 11.7988645,11.1335651 12.7307512,10.70657 L21.8378602,6.59668732 C22.257009,6.40605099 22.52609,5.98806348 22.52609,5.52759855 C22.52609,5.06713362 22.257009,4.64914611 21.8378602,4.45850978 L12.7307512,0.348627108 C11.809036,-0.0950241724 10.7400124,-0.116203995 9.80144794,0.290590861 Z M21.8271693,16.1741954 L19.9196095,15.305179 L12.7154785,18.5811724 C11.7835918,19.0081675 10.7119528,19.0081675 9.78006616,18.5811724 L2.60189872,15.305179 L0.694338908,16.1741954 C0.275190076,16.3648317 0.00610907867,16.7828192 0.00610907867,17.2432842 C0.00610907867,17.7037491 0.275190076,18.1217366 0.694338908,18.3123729 L10.7743187,22.8941819 C11.0837958,23.0352727 11.4392396,23.0352727 11.7487168,22.8941819 L21.8363329,18.3123729 C22.2554817,18.1217366 22.5245627,17.7037491 22.5245627,17.2432842 C22.5245627,16.7828192 22.2554817,16.3648317 21.8363329,16.1741954 L21.8271693,16.1741954 Z" id="形状"></path>
                    <path d="M21.8271693,10.3018435 L19.6431737,9.30300917 L13.1843502,12.2384215 C12.2524636,12.6654166 11.1808246,12.6654166 10.2489379,12.2384215 L3.37622444,9.08460961 L0.692811638,10.3064253 C0.273662807,10.4970617 0.004581809,10.9150492 0.004581809,11.3755141 C0.004581809,11.835979 0.273662807,12.2539665 0.692811638,12.4446029 L9.79992067,16.5544856 C10.7318073,16.9814807 11.8034463,16.9814807 12.735333,16.5544856 L21.842442,12.4446029 C22.2605154,12.2515832 22.5272212,11.8320539 22.5246092,11.3715812 C22.5219586,10.9111085 22.2504759,10.4946546 21.8302238,10.3064253 L21.8271693,10.3018435 Z" id="路径"></path>
                </g>
            </g>
        </g>
    </g>
</svg>