<?xml version="1.0" encoding="UTF-8"?>
<svg width="44px" height="44px" viewBox="0 0 44 44" version="1.1" xmlns="http://www.w3.org/2000/svg" xmlns:xlink="http://www.w3.org/1999/xlink">
    <title>编组 12</title>
    <defs>
        <radialGradient cx="46.9091818%" cy="0%" fx="46.9091818%" fy="0%" r="182.285983%" id="radialGradient-1">
            <stop stop-color="#FF681D" offset="0%"></stop>
            <stop stop-color="#CB0000" offset="100%"></stop>
        </radialGradient>
    </defs>
    <g id="用户端" stroke="none" stroke-width="1" fill="none" fill-rule="evenodd">
        <g id="移动端" transform="translate(-797.000000, -361.000000)">
            <g id="编组-20" transform="translate(797.000000, 361.000000)">
                <rect id="矩形" fill="url(#radialGradient-1)" x="0" y="0" width="44" height="44" rx="3"></rect>
                <g id="研发" transform="translate(10.558982, 10.000000)" fill="#FFFFFF" fill-rule="nonzero">
                    <path d="M22.6534752,22.5079022 L22.6534752,22.4784567 C22.6521518,22.4548562 22.6506078,22.4308146 22.6488433,22.4063319 C22.6488433,22.3954139 22.6471891,22.384496 22.6461965,22.3732472 C22.6437703,22.3463382 22.6409029,22.3188779 22.6375945,22.2908661 C22.6375945,22.2832566 22.6375945,22.2759779 22.6349477,22.2680376 C22.630757,22.2327472 22.6257942,22.1969053 22.6200595,22.1605121 C22.6200595,22.1509175 22.6167511,22.1409921 22.6154277,22.1313974 C22.6110164,22.1038268 22.6062742,22.0760356 22.6012012,22.0480238 L22.5939226,22.0093146 C22.5888496,21.9821851 22.5834457,21.9546145 22.577711,21.9266027 C22.5672881,21.8752535 22.5560378,21.8240758 22.5439646,21.7730894 L22.5390019,21.7532385 C22.5308409,21.7192715 22.5223492,21.6848633 22.5135266,21.650014 L22.5022778,21.6070038 C22.4947785,21.5785509 22.4870588,21.5497671 22.4791184,21.5206526 L22.466877,21.4763189 C22.4571722,21.4419108 22.4471365,21.4071718 22.4367699,21.3721019 L22.4291604,21.3459649 C22.4161471,21.3018519 22.4025823,21.2577389 22.3884662,21.2136258 L22.3749014,21.1712773 C22.3647554,21.1395159 22.3542785,21.107534 22.3434709,21.0753315 L22.3272593,21.026366 C22.3160105,20.9930607 22.3049822,20.9599759 22.2941745,20.9271117 L22.2799481,20.8867483 C22.2636263,20.840209 22.246753,20.7931184 22.2293284,20.7454763 L22.2180796,20.7150383 C22.2039634,20.67666 22.1895164,20.6379508 22.1747385,20.5989107 L22.1565419,20.5509378 C22.1428668,20.5154268 22.1290815,20.4796953 22.1151859,20.4437432 L22.097651,20.3987479 C22.0782412,20.3495619 22.0585007,20.3001553 22.0384292,20.2505281 L22.0384292,20.2478813 C22.0163727,20.1960485 21.9943162,20.1437745 21.9722597,20.0910595 L21.9557173,20.0516886 L21.9037742,19.9286133 L21.8859084,19.8869264 C21.8656164,19.8397255 21.8449936,19.7921937 21.8240399,19.7443311 L21.8164304,19.727127 C21.7915065,19.6706623 21.7661415,19.6137565 21.7403354,19.5564095 L21.7350419,19.544499 C21.7114414,19.4922251 21.6875101,19.4397306 21.6632479,19.3870155 L21.650014,19.3582317 C21.6261929,19.3061784 21.6019308,19.2539044 21.5772275,19.2014099 L21.5706105,19.1875143 C21.5143664,19.0673063 21.4564681,18.9459955 21.3969155,18.8235818 L21.3969155,18.8202733 C21.3669186,18.7585151 21.3365909,18.6965363 21.3059324,18.6343369 C20.2816278,16.5622375 18.847072,14.1735169 17.5756242,12.1735424 L17.5236811,12.0938081 L17.4856336,12.0342555 C17.3202097,11.7732166 17.1547858,11.5191256 16.9976332,11.2733057 C15.7155982,9.29152775 14.7237167,7.87450693 14.7237167,7.87450693 L14.7237167,1.47028736 C15.1158962,1.45145088 15.4246218,1.12876498 15.4261064,0.736136211 C15.4250157,0.330032047 15.0960744,0.0010906951 14.6899702,-1.33326446e-15 L7.96019646,-1.33326446e-15 C7.55409229,0.0010906951 7.22515094,0.330032047 7.22406025,0.736136211 C7.22554489,1.128765 7.53427052,1.4514509 7.92645001,1.47028736 L7.92645001,7.87483775 C7.92645001,7.87483775 1.80642863,16.6188125 0.319598914,21.0472094 L0.315959572,21.0577965 C0.299858324,21.1056592 0.284418766,21.1529704 0.269640896,21.1997302 L0.269640896,21.204693 C0.239423479,21.2999771 0.21152199,21.3930556 0.18593643,21.4839285 L0.178657783,21.5097346 C0.168732344,21.5456867 0.159137756,21.581308 0.149874018,21.6165984 L0.142595371,21.6447204 C0.131677381,21.6867381 0.121421117,21.7284249 0.111826541,21.7691192 C0.101901102,21.810806 0.0927476523,21.8518311 0.0843661905,21.8921946 C0.0823810881,21.9017891 0.0803960224,21.9110529 0.078741746,21.9203166 C0.0725659127,21.950534 0.0666106545,21.9805309 0.0608759714,22.0103072 L0.054589875,22.043392 C0.0492963176,22.0731682 0.0443335983,22.1025034 0.0397017173,22.1313974 C0.0397017173,22.1399995 0.0367241004,22.1486015 0.0354007233,22.1572036 C0.0298865908,22.194038 0.0249238715,22.2302106 0.0205125655,22.2657216 C0.0205125655,22.2726694 0.0205125655,22.2796172 0.0181966372,22.286565 C0.0148881577,22.3147974 0.0120208039,22.3426989 0.00959457587,22.3702695 C0.00959457587,22.3811875 0.00794033613,22.3917746 0.00694778495,22.4033543 C0.00496270703,22.427837 0.00341875481,22.4519889 0.00231592832,22.47581 L0.00231592832,22.5052554 C0.00231592832,22.5383402 0,22.571425 0,22.6008704 C0,26 3.39912962,26 3.39912962,26 L19.2566615,26 C19.2566615,26 22.6557911,26 22.6557911,22.6008704 C22.6557911,22.5724175 22.6547986,22.5409869 22.6534752,22.5079022 Z M8.85547044,8.52396102 L9.05960351,8.23082994 L9.05960351,1.4719416 L13.5922174,1.4719416 L13.5922174,8.23082994 L13.7976739,8.52396102 C14.3680554,9.33916984 15.0026213,10.277454 15.6557147,11.2736365 L6.99676786,11.2736365 C7.65019212,10.2761306 8.28475809,9.34016239 8.85547044,8.52396102 Z M6.79362734,21.4706945 C6.16780395,21.4706945 5.66047385,20.9633644 5.66047385,20.337541 C5.66047385,19.7117177 6.16780395,19.2043876 6.79362734,19.2043876 C7.41945074,19.2043876 7.92678084,19.7117177 7.92678084,20.337541 C7.92641581,20.9632132 7.41929947,21.4703295 6.79362734,21.4706945 L6.79362734,21.4706945 Z M10.1924261,18.0715649 C9.27592435,18.0715649 8.44966723,17.5194776 8.09893717,16.6727403 C7.74820712,15.8260031 7.94207442,14.8513663 8.59013905,14.2033017 C9.23820368,13.5552371 10.2128404,13.3613698 11.0595777,13.7120998 C11.9063149,14.0628299 12.4584023,14.889087 12.4584023,15.8055888 C12.4576722,17.0567503 11.4435877,18.0708349 10.1924261,18.0715649 L10.1924261,18.0715649 Z M14.7250401,22.6041789 C13.473576,22.6041789 12.459064,21.5896668 12.459064,20.3382027 C12.459064,19.0867387 13.473576,18.0722266 14.7250401,18.0722266 C15.9765041,18.0722266 16.9910162,19.0867387 16.9910162,20.3382027 C16.989921,21.5892349 15.9757418,22.60297 14.7247092,22.6035172 L14.7250401,22.6041789 Z" id="形状"></path>
                </g>
            </g>
        </g>
    </g>
</svg>