<?xml version="1.0" encoding="UTF-8"?>
<svg width="44px" height="44px" viewBox="0 0 44 44" version="1.1" xmlns="http://www.w3.org/2000/svg" xmlns:xlink="http://www.w3.org/1999/xlink">
    <title>编组 12</title>
    <defs>
        <radialGradient cx="46.9091818%" cy="0%" fx="46.9091818%" fy="0%" r="182.285983%" id="radialGradient-1">
            <stop stop-color="#FF681D" offset="0%"></stop>
            <stop stop-color="#CB0000" offset="100%"></stop>
        </radialGradient>
    </defs>
    <g id="用户端" stroke="none" stroke-width="1" fill="none" fill-rule="evenodd">
        <g id="移动端" transform="translate(-718.000000, -361.000000)">
            <g id="编组-19" transform="translate(718.000000, 361.000000)">
                <rect id="矩形" fill="url(#radialGradient-1)" x="0" y="0" width="44" height="44" rx="3"></rect>
                <g id="学校-(1)" transform="translate(7.000000, 11.000000)" fill="#FFFFFF" fill-rule="nonzero">
                    <path d="M29.6500976,6.60218461 L15.2453847,0.0550321021 C15.0880476,-0.018344034 14.9072773,-0.018344034 14.7465926,0.0550321021 L0.348574885,6.60218461 C0.218018574,6.66221963 0.110895447,6.76561327 0.0539862862,6.89568915 C-0.08326522,7.19586425 0.0506386884,7.54940382 0.348574885,7.68615025 L14.7499402,14.2299675 C14.9072773,14.3000083 15.0880476,14.3000083 15.2487323,14.2299675 L26.5836981,9.07696156 L26.5836981,15.9076128 L25.877355,18.0722088 C25.8170983,18.2556491 25.8505742,18.4557659 25.9643926,18.612524 L26.8715915,19.8332361 C26.9485863,19.9366297 27.0690998,20 27.1996561,20 C27.3268648,20 27.4507259,19.9366297 27.5277207,19.8332361 L28.4349197,18.612524 C28.548738,18.4591011 28.582214,18.2556491 28.5253048,18.0722088 L27.8189617,15.9076128 L27.8189617,8.51996998 L29.6534452,7.68615025 C29.7840016,7.62611523 29.8911247,7.52272159 29.9480338,7.38931043 C30.0819378,7.09247061 29.9480338,6.73559576 29.6500976,6.60218461 Z" id="路径"></path>
                    <path d="M14.7719821,15.9138085 L6,12 L6,20.8314942 C6,21.0775425 6.1576006,21.2973457 6.39232489,21.3826424 C9.39008942,22.4619744 12.3845007,23 15.3688525,23 C18.3431446,23 21.0994784,22.465255 23.6378539,21.395765 C23.8591654,21.3039069 24,21.0906651 24,20.8577393 L24,12.0164032 L15.2716095,15.9138085 C15.1106557,15.9859827 14.9295827,15.9859827 14.7719821,15.9138085 Z" id="路径"></path>
                </g>
            </g>
        </g>
    </g>
</svg>