<?xml version="1.0" encoding="UTF-8"?>
<svg width="25px" height="25px" viewBox="0 0 25 25" version="1.1" xmlns="http://www.w3.org/2000/svg" xmlns:xlink="http://www.w3.org/1999/xlink">
    <title>放大镜</title>
    <g id="用户端" stroke="none" stroke-width="1" fill="none" fill-rule="evenodd" fill-opacity="0.85">
        <g id="pc端" transform="translate(-4861.000000, -173.000000)" fill="#000000" fill-rule="nonzero">
            <g id="放大镜" transform="translate(4861.000000, 173.000000)">
                <path d="M24.7201931,23.3634312 L18.6099006,17.2529471 C20.1304198,15.4282669 21.0490015,13.0831452 21.0490015,10.5248307 C21.0490015,4.72159518 16.3275543,0 10.5245007,0 C4.72144716,0 0,4.72159518 0,10.5248307 C0,16.3280662 4.72144716,21.0496614 10.5245007,21.0496614 C13.0827351,21.0496614 15.4277832,20.1310509 17.2524062,18.6104841 L23.3595636,24.717833 C23.5476691,24.9059443 23.7922062,25 24.0398784,25 C24.2875506,25 24.5320877,24.9059443 24.7201931,24.717833 C25.093269,24.3447454 25.093269,23.7365187 24.7201931,23.3634312 L24.7201931,23.3634312 Z M10.5276358,19.1309255 C5.78110794,19.1309255 1.92181083,15.2715074 1.92181083,10.5248307 C1.92181083,5.778154 5.78110794,1.91873589 10.5276358,1.91873589 C15.2710286,1.91873589 19.1334608,5.778154 19.1334608,10.5248307 C19.1334608,15.2715074 15.2710286,19.1309255 10.5276358,19.1309255 Z" id="形状"></path>
            </g>
        </g>
    </g>
</svg>