<?xml version="1.0" encoding="UTF-8"?>
<svg width="44px" height="44px" viewBox="0 0 44 44" version="1.1" xmlns="http://www.w3.org/2000/svg" xmlns:xlink="http://www.w3.org/1999/xlink">
    <title>编组 12</title>
    <defs>
        <radialGradient cx="46.9091818%" cy="0%" fx="46.9091818%" fy="0%" r="182.285983%" id="radialGradient-1">
            <stop stop-color="#FF681D" offset="0%"></stop>
            <stop stop-color="#CB0000" offset="100%"></stop>
        </radialGradient>
    </defs>
    <g id="用户端" stroke="none" stroke-width="1" fill="none" fill-rule="evenodd">
        <g id="移动端" transform="translate(-252.000000, -361.000000)">
            <g id="编组-13" transform="translate(252.000000, 361.000000)">
                <rect id="矩形" fill="url(#radialGradient-1)" x="0" y="0" width="44" height="44" rx="3"></rect>
                <g id="制造业" transform="translate(9.000000, 10.000000)" fill="#FFFFFF" fill-rule="nonzero">
                    <path d="M7.44541224,4.69372567 C6.70961253,3.58576711 5.35877086,2.93620743 3.93342041,3.00496499 C2.53724646,2.98058096 1.23545332,3.64135595 0.529479995,4.73276538 C-0.176493332,5.8241748 -0.176493332,7.1759253 0.529479995,8.26733473 C1.23545332,9.35874416 2.53724646,10.0195191 3.93342041,9.99513511 C5.36112673,10.0632683 6.71364845,9.41159614 7.44930426,8.3011116 C8.18496006,7.19062706 8.18346284,5.8029055 7.44541224,4.69372567 Z M3.89470102,8.82081059 C2.8518859,8.81811813 1.91388561,8.24576902 1.51928364,7.37136448 C1.12468167,6.49695994 1.35145177,5.49328322 2.09356241,4.82962632 C2.83567304,4.16596941 3.94648237,3.97347161 4.9066061,4.34213966 C5.86672984,4.71080771 6.48644653,5.56779242 6.47599349,6.512391 C6.46259538,7.79389645 5.30944351,8.82514054 3.89470102,8.82081059 Z" id="形状"></path>
                    <path d="M19.2727864,21.2265496 L13.6520254,21.2265496 L7.22962568,10.0824569 C5.45911912,11.9444607 3.73639238,11.9444607 2.8099954,11.6784602 C2.07314604,11.4093947 1.39364474,11.0032747 0.807226005,10.4814577 L7.22962568,21.2159096 L1.58630196,21.2159096 C1.16556856,21.2148479 0.761742813,21.3817734 0.464113925,21.6797776 C0.166485037,21.9777817 -0.000428789631,22.3823154 0.000135749402,22.8039329 L0.000135749402,24.3932861 C-0.00540326224,24.8174255 0.158764026,25.2261573 0.45607248,25.528089 C0.753380933,25.8300208 1.1590314,25.9999651 1.58232031,25.9999651 L19.270132,25.9999651 C19.6915522,26.0027637 20.0966839,25.8369869 20.3956746,25.5393659 C20.6946654,25.2417448 20.8627938,24.8368806 20.8627938,24.4145661 L20.8627938,22.8185629 C20.8634988,22.3969454 20.696585,21.9924118 20.3989561,21.6944076 C20.1013272,21.3964035 19.6975015,21.2294779 19.2767681,21.2305397 L19.2727864,21.2265496 Z M25.8159628,7.7177121 C25.5667838,7.35334892 25.0713691,7.25785403 24.7050828,7.50358165 L20.9251707,10.0864469 L18.3291356,7.08197079 L18.3291356,4.87283628 L20.7844858,1.99870042 L24.6334131,4.58954572 C25.0013001,4.82944262 25.4926375,4.73484666 25.7456204,4.37541527 C25.9950502,4.02136241 25.9126658,3.5319578 25.5611373,3.27949304 L20.9211891,0.136696625 C20.5567117,-0.106710053 20.0652868,-0.0166911059 19.810309,0.340187041 C19.7061419,0.496586597 19.6635793,0.686150808 19.6908596,0.872188133 L17.214274,3.70908393 L15.7768987,3.70908393 C15.495299,3.70908392 15.2252328,3.82118382 15.0261118,4.02072294 C14.8269907,4.22026205 14.7151256,4.49089516 14.7151256,4.77308609 L14.7151256,4.50708554 L8.43075646,4.50708554 C8.71431082,5.12989303 8.85056987,5.80988773 8.82892134,6.4941096 C8.8430926,7.16652994 8.70705238,7.83361763 8.43075646,8.44655357 L14.7137984,8.44655357 L14.7137984,8.18055303 C14.7026388,8.47061695 14.8111214,8.75249432 15.0137493,8.95993463 C15.2151303,9.16796257 15.4916619,9.28590303 15.7808803,9.28711529 L17.2726715,9.28711529 C17.5083615,9.28372639 17.7362255,9.20184129 17.920353,9.05436481 L19.7784558,11.1983292 C19.7572543,11.3817215 19.8045312,11.5664883 19.9111775,11.7170303 C20.1649432,12.0758188 20.6580394,12.1661439 21.0220575,11.9205207 L25.6566969,8.80033429 C26.0112529,8.55865564 26.1064277,8.07645099 25.8703787,7.7177121 L25.8159628,7.7177121 Z" id="形状"></path>
                </g>
            </g>
        </g>
    </g>
</svg>