<?xml version="1.0" encoding="UTF-8"?>
<svg width="87px" height="25px" viewBox="0 0 87 25" version="1.1" xmlns="http://www.w3.org/2000/svg" xmlns:xlink="http://www.w3.org/1999/xlink">
    <title>编组 53</title>
    <defs>
        <linearGradient x1="50%" y1="100%" x2="50%" y2="-8.91463119%" id="linearGradient-1">
            <stop stop-color="#116DFA" offset="0%"></stop>
            <stop stop-color="#038BFE" offset="100%"></stop>
            <stop stop-color="#0091FF" offset="100%"></stop>
        </linearGradient>
    </defs>
    <g id="用户端" stroke="none" stroke-width="1" fill="none" fill-rule="evenodd">
        <g id="pc端" transform="translate(-4519.000000, -2393.000000)">
            <g id="编组-53" transform="translate(4519.000000, 2393.000000)">
                <rect id="矩形" fill="url(#linearGradient-1)" x="0" y="0" width="87" height="25" rx="5"></rect>
                <text id="语音介绍" font-family="PingFangSC-Regular, PingFang SC" font-size="12" font-weight="normal" letter-spacing="0.24" fill="#FFFFFF">
                    <tspan x="6" y="17">语音介绍</tspan>
                </text>
                <g id="编组-52" transform="translate(58.602674, 7.822543)" fill="#FFFFFF" fill-rule="nonzero">
                    <path d="M4.26325641e-14,3.10595655 C4.26325641e-14,2.99308155 0.0911245418,2.90158155 0.205498978,2.90158155 C0.318935914,2.90158155 0.410997945,2.99251905 0.410997945,3.10595655 L0.410997945,7.24895654 C0.410997945,7.30335565 0.389312212,7.35551045 0.350740998,7.3938707 C0.312169783,7.43223095 0.259896984,7.45363099 0.205498978,7.45333464 C0.151116128,7.4535808 0.0988724413,7.43216458 0.0603121508,7.3938152 C0.0217518603,7.35546581 4.92776402e-05,7.30334022 4.26325641e-14,7.24895654 L4.26325641e-14,3.10595655 Z" id="路径"></path>
                    <path d="M1.23280597,4.14133155 C1.23280597,4.02789404 1.32411836,3.93601904 1.43830528,3.93601904 C1.55174222,3.93601904 1.64380425,4.02733155 1.64380425,4.14133155 L1.64380425,6.21358154 C1.64380425,6.32701905 1.55267971,6.41889482 1.43830528,6.41889482 C1.38379032,6.41904377 1.33146227,6.39746678 1.29289663,6.35893614 C1.25433099,6.32040549 1.23270636,6.2680969 1.23280597,6.21358154 L1.23280597,4.14133155 L1.23280597,4.14133155 Z" id="路径"></path>
                    <path d="M2.46598762,0.211706548 C2.46372553,0.136842145 2.50237327,0.0666758528 2.56685666,0.0285753655 C2.63134004,-0.00952512182 2.71144564,-0.00952512182 2.77592903,0.0285753655 C2.84041241,0.0666758528 2.87906015,0.136842145 2.87679806,0.211706548 L2.87679806,10.1432065 C2.87906015,10.2180709 2.84041241,10.2882372 2.77592903,10.3263377 C2.71144564,10.3644382 2.63134004,10.3644382 2.56685666,10.3263377 C2.50237327,10.2882372 2.46372553,10.2180709 2.46598762,10.1432065 L2.46598762,0.211706548 L2.46598762,0.211706548 Z" id="路径"></path>
                    <path d="M3.69879394,2.79733155 C3.69879394,2.68383703 3.79079896,2.59183155 3.90429291,2.59183155 C4.01778685,2.59183155 4.10979187,2.68383703 4.10979187,2.79733155 L4.10979187,7.55776905 C4.10979187,7.67126356 4.01778685,7.76326905 3.90429291,7.76326905 C3.79079896,7.76326905 3.69879394,7.67126356 3.69879394,7.55776905 L3.69879394,2.79714404 L3.69879394,2.79733155 Z" id="路径"></path>
                    <path d="M4.93160025,4.34889404 C4.93160025,4.23539953 5.02360527,4.14339404 5.13709921,4.14339404 C5.25059316,4.14339404 5.34259818,4.23539953 5.34259818,4.34889404 L5.34259818,6.00601905 C5.34259818,6.11951356 5.25059316,6.21151905 5.13709921,6.21151905 C5.02360527,6.21151905 4.93160025,6.11951356 4.93160025,6.00601905 L4.93160025,4.34870655 L4.93160025,4.34889404 Z" id="路径"></path>
                    <path d="M6.16459406,4.55608154 C6.16459406,4.4426388 6.25655711,4.35067529 6.36999928,4.35067529 C6.48344145,4.35067529 6.5754045,4.4426388 6.5754045,4.55608154 L6.5754045,5.79883155 C6.5754045,5.91227429 6.48344145,6.0042378 6.36999928,6.0042378 C6.25655711,6.0042378 6.16459406,5.91227429 6.16459406,5.79883155 L6.16459406,4.55608154 Z" id="路径"></path>
                    <path d="M7.29465088,2.69214404 C7.29465088,2.57926904 7.38577542,2.48776905 7.50014986,2.48776905 C7.61303734,2.48817489 7.7046233,2.57925993 7.70564883,2.69214404 L7.70564883,7.66276905 C7.70564883,7.71716815 7.68396309,7.76932295 7.64539188,7.8076832 C7.60682067,7.84604345 7.55454787,7.86744349 7.50014986,7.86714715 C7.38726238,7.8667382 7.29567641,7.77565316 7.29465088,7.66276905 L7.29465088,2.69214404 L7.29465088,2.69214404 Z" id="路径"></path>
                    <path d="M8.5274572,3.10595655 C8.5274572,2.99308155 8.61876925,2.90158155 8.73295617,2.90158155 C8.8465806,2.90158155 8.93845513,2.99251905 8.93845513,3.10595655 L8.93845513,7.24895654 C8.93845513,7.30335565 8.9167694,7.35551045 8.87819819,7.3938707 C8.83962697,7.43223095 8.78735417,7.45363099 8.73295617,7.45333464 C8.67857332,7.4535808 8.62632963,7.43216458 8.58776935,7.39381519 C8.54920906,7.35546581 8.52750648,7.30334021 8.5274572,7.24895654 L8.5274572,3.10595655 Z" id="路径"></path>
                    <path d="M9.76044962,3.31370654 C9.76044962,3.20026904 9.85157555,3.10857844 9.96594998,3.10857844 C10.0204782,3.10828101 10.0728655,3.12978374 10.1114585,3.16830658 C10.1500516,3.20682941 10.1716499,3.25917758 10.1714503,3.31370654 L10.1714503,7.04120655 C10.1714503,7.15464405 10.0801369,7.24633465 9.96594998,7.24633465 C9.91142174,7.24663208 9.85903448,7.22512935 9.82044141,7.18660651 C9.78184834,7.14808368 9.76025008,7.09573551 9.76044962,7.04120655 L9.76044962,3.31370654 Z" id="路径"></path>
                    <path d="M10.9932573,3.82933154 C10.9979609,3.71924899 11.0885739,3.63242456 11.1987563,3.63242456 C11.3089387,3.63242456 11.3995517,3.71924899 11.4042553,3.82933154 L11.4042553,6.52558155 C11.3995517,6.6356641 11.3089387,6.72248853 11.1987563,6.72248853 C11.0885739,6.72248853 10.9979609,6.6356641 10.9932573,6.52558155 L10.9932573,3.82933154 L10.9932573,3.82933154 Z" id="路径"></path>
                    <path d="M12.2260633,4.14133155 C12.2260633,4.02789404 12.3173757,3.93601904 12.4315626,3.93601904 C12.545187,3.93601904 12.6370616,4.02733155 12.6370616,4.14133155 L12.6370616,6.21358154 C12.6370616,6.32701905 12.545937,6.41889482 12.4315626,6.41889482 C12.3770476,6.41904377 12.3247196,6.39746678 12.2861539,6.35893614 C12.2475883,6.32040549 12.2259637,6.2680969 12.2260633,6.21358154 L12.2260633,4.14133155 L12.2260633,4.14133155 Z" id="路径"></path>
                    <path d="M13.4590574,4.96820654 C13.4590574,4.91380744 13.4807432,4.86165264 13.5193144,4.82329239 C13.5578856,4.78493214 13.6101584,4.7635321 13.6645564,4.76382844 C13.7779933,4.76382844 13.8700554,4.85533154 13.8700554,4.96820654 L13.8700554,5.38670655 C13.8700554,5.44110565 13.8483696,5.49326045 13.8097984,5.5316207 C13.7712272,5.56998095 13.7189544,5.59138099 13.6645564,5.59108465 C13.550932,5.59108465 13.4590574,5.49958155 13.4590574,5.38670655 L13.4590574,4.96820654 Z" id="路径"></path>
                    <path d="M14.6918638,4.55608154 C14.6918638,4.44258703 14.7838688,4.35058155 14.8973627,4.35058155 C15.0108567,4.35058155 15.1028617,4.44258703 15.1028617,4.55608154 L15.1028617,5.79883155 C15.1028617,5.91232606 15.0108567,6.00433154 14.8973627,6.00433154 C14.7838688,6.00433154 14.6918638,5.91232606 14.6918638,5.79883155 L14.6918638,4.55608154 L14.6918638,4.55608154 Z" id="路径"></path>
                    <path d="M15.9246701,4.55608154 C15.9246701,4.44258703 16.0166751,4.35058154 16.130169,4.35058154 C16.243663,4.35058154 16.335668,4.44258703 16.335668,4.55608154 L16.335668,5.79883155 C16.335668,5.91232606 16.243663,6.00433155 16.130169,6.00433155 C16.0166751,6.00433155 15.9246701,5.91232606 15.9246701,5.79883155 L15.9246701,4.55608154 L15.9246701,4.55608154 Z" id="路径"></path>
                    <path d="M17.1576639,4.86451905 C17.1576639,4.75164405 17.2487884,4.66014405 17.3631628,4.66014405 C17.4765998,4.66014405 17.5686618,4.75201905 17.5686618,4.86451905 L17.5686618,5.49039404 C17.5686618,5.54479315 17.5469761,5.59694795 17.5084049,5.6353082 C17.4698336,5.67366845 17.4175608,5.69506849 17.3631628,5.69477214 C17.2495384,5.69477214 17.1576639,5.60289404 17.1576639,5.49039404 L17.1576639,4.86433154 L17.1576639,4.86451905 Z" id="路径"></path>
                    <path d="M18.2877207,4.96820654 C18.2877207,4.91380744 18.3094064,4.86165264 18.3479777,4.82329239 C18.3865489,4.78493214 18.4388217,4.7635321 18.4932197,4.76382844 C18.6066566,4.76382844 18.6987186,4.85533154 18.6987186,4.96820654 L18.6987186,5.38670655 C18.6987186,5.44110565 18.6770329,5.49326045 18.6384617,5.5316207 C18.5998905,5.56998095 18.5476177,5.59138099 18.4932197,5.59108465 C18.3797827,5.59108465 18.2877207,5.49958155 18.2877207,5.38670655 L18.2877207,4.96820654 Z" id="路径"></path>
                    <path d="M19.520527,5.17745654 C19.5165512,5.10150718 19.5548084,5.02956221 19.6199993,4.99039312 C19.6851902,4.95122403 19.7666742,4.95122403 19.8318651,4.99039312 C19.897056,5.02956221 19.9353133,5.10150718 19.9313375,5.17745654 C19.9353133,5.2534059 19.897056,5.32535087 19.8318651,5.36451996 C19.7666742,5.40368905 19.6851902,5.40368905 19.6199993,5.36451996 C19.5548084,5.32535087 19.5165512,5.2534059 19.520527,5.17745654 L19.520527,5.17745654 Z" id="路径"></path>
                    <path d="M20.7533333,5.17745654 C20.7501068,5.10194435 20.7885538,5.03074554 20.853464,4.99202716 C20.9183743,4.95330878 20.9992903,4.95330878 21.0642005,4.99202716 C21.1291108,5.03074554 21.1675578,5.10194435 21.1643313,5.17745654 C21.1675578,5.25296873 21.1291108,5.32416754 21.0642005,5.36288592 C20.9992903,5.4016043 20.9183743,5.4016043 20.853464,5.36288592 C20.7885538,5.32416754 20.7501068,5.25296873 20.7533333,5.17745654 L20.7533333,5.17745654 Z" id="路径"></path>
                    <path d="M21.9861396,5.17745654 C21.9829131,5.10194435 22.0213601,5.03074554 22.0862704,4.99202716 C22.1511806,4.95330878 22.2320966,4.95330878 22.2970069,4.99202716 C22.3619171,5.03074554 22.4003641,5.10194435 22.3971376,5.17745654 C22.4003641,5.25296873 22.3619171,5.32416754 22.2970069,5.36288592 C22.2320966,5.4016043 22.1511806,5.4016043 22.0862704,5.36288592 C22.0213601,5.32416754 21.9829131,5.25296873 21.9861396,5.17745654 L21.9861396,5.17745654 Z" id="路径"></path>
                </g>
            </g>
        </g>
    </g>
</svg>