<?xml version="1.0" encoding="UTF-8"?>
<svg width="44px" height="44px" viewBox="0 0 44 44" version="1.1" xmlns="http://www.w3.org/2000/svg" xmlns:xlink="http://www.w3.org/1999/xlink">
    <title>编组 12</title>
    <defs>
        <radialGradient cx="46.9091818%" cy="0%" fx="46.9091818%" fy="0%" r="182.285983%" id="radialGradient-1">
            <stop stop-color="#FF681D" offset="0%"></stop>
            <stop stop-color="#CB0000" offset="100%"></stop>
        </radialGradient>
    </defs>
    <g id="用户端" stroke="none" stroke-width="1" fill="none" fill-rule="evenodd">
        <g id="移动端" transform="translate(-568.000000, -361.000000)">
            <g id="编组-17" transform="translate(568.000000, 361.000000)">
                <rect id="矩形" fill="url(#radialGradient-1)" x="0" y="0" width="44" height="44" rx="3"></rect>
                <g id="图标_产业园区" transform="translate(10.000000, 11.000000)" fill="#FFFFFF" fill-rule="nonzero">
                    <path d="M8.436,6.42442623 L10.3195,3.21245902 L8.436,0 L4.6685,0 L2.785,3.21245902 L4.6685,6.42442623 L8.436,6.42442623 L8.436,6.42442623 Z M24.116,8.72409836 L20.349,8.72409836 L18.4655,11.9365574 L20.349,15.1485246 L24.116,15.1485246 L26,11.9365574 L24.116,8.72409836 Z M4.516,17.575082 L2.6325,20.787541 L4.516,24 L8.2835,24 L10.167,20.787541 L8.2835,17.575082 L4.516,17.575082 L4.516,17.575082 Z M8.476,16.7940984 L11.3015,11.9754098 L8.476,7.15672131 L2.8255,7.15672131 L0,11.9754098 L2.8255,16.7940984 L8.476,16.7940984 Z M11.8935,11.5263934 L17.5445,11.5263934 L20.37,6.70770492 L17.5445,1.8895082 L11.8935,1.8895082 L9.068,6.70770492 L11.8935,11.5263934 Z M12.013,12.2813115 L9.1875,17.1 L12.013,21.9186885 L17.664,21.9186885 L20.4895,17.1 L17.664,12.2813115 L12.013,12.2813115 Z" id="形状"></path>
                </g>
            </g>
        </g>
    </g>
</svg>