<?xml version="1.0" encoding="UTF-8"?>
<svg width="44px" height="44px" viewBox="0 0 44 44" version="1.1" xmlns="http://www.w3.org/2000/svg" xmlns:xlink="http://www.w3.org/1999/xlink">
    <title>编组 12</title>
    <defs>
        <radialGradient cx="46.9091818%" cy="0%" fx="46.9091818%" fy="0%" r="182.285983%" id="radialGradient-1">
            <stop stop-color="#FF681D" offset="0%"></stop>
            <stop stop-color="#CB0000" offset="100%"></stop>
        </radialGradient>
    </defs>
    <g id="用户端" stroke="none" stroke-width="1" fill="none" fill-rule="evenodd">
        <g id="移动端" transform="translate(-331.000000, -361.000000)">
            <g id="编组-14" transform="translate(331.000000, 361.000000)">
                <rect id="矩形" fill="url(#radialGradient-1)" x="0" y="0" width="44" height="44" rx="3"></rect>
                <g id="鹰眼" transform="translate(10.291457, 10.005840)" fill="#FFFFFF" fill-rule="nonzero">
                    <path d="M24.8464353,13.6536986 C24.5793327,12.0892402 21.6425423,9.92162519 21.6425423,9.92162519 C20.3639306,7.45276656 16.7925205,5.61986665 15.6799275,4.96114732 C14.9127604,4.51396793 9.87328978,1.92193414 6.78052222,0.324004234 C6.36362517,0.111960585 5.90269038,0.000969319277 5.43496748,0 C4.5246283,0.0160875622 3.66530847,0.423429064 3.07656485,1.11794845 C2.97615031,1.26254539 2.8650249,1.38572053 2.77599069,1.53098689 C2.7439342,1.56356246 2.71767253,1.60137021 2.69833678,1.64278175 L2.57583105,1.86570202 C0.0436847384,5.75309238 -0.66327623,10.5528952 0.640508309,15.0052782 C2.2203636,20.40758 6.50672525,24.5808079 11.9311183,26 C9.35046477,24.8820515 7.62668199,22.9386956 7.62668199,20.7041376 C7.68152918,19.2474593 8.35271993,17.8826886 9.47297053,16.949973 L9.70660167,16.7377636 C9.94224109,16.5463066 10.1872526,16.3675687 10.4409666,16.2008806 C11.391212,15.6183868 12.4513387,15.2380447 13.555156,15.0836015 C15.9560408,14.6298199 18.4375717,14.8981943 20.6859266,15.8547852 C22.7216639,16.7598548 22.3769073,18.0893432 22.3769073,18.0893432 C22.9606701,17.7359065 23.4707317,17.2731233 23.8791087,16.7263833 C24.5980592,15.8719444 24.9462585,14.7658996 24.8464353,13.6536986 L24.8464353,13.6536986 Z M14.7567832,9.94438581 C14.523214,9.88004322 14.2961796,9.79398083 14.0786504,9.6873246 C12.2430727,8.90476067 11.5080384,6.22369268 11.5080384,6.22369268 C13.4525716,7.09273893 15.314484,8.1359476 17.0710034,9.34055976 C16.4457339,9.9099752 15.5805473,10.1357196 14.7567832,9.94438581 L14.7567832,9.94438581 Z" id="形状"></path>
                </g>
            </g>
        </g>
    </g>
</svg>