<?xml version="1.0" encoding="UTF-8"?>
<svg width="20px" height="22px" viewBox="0 0 20 22" version="1.1" xmlns="http://www.w3.org/2000/svg" xmlns:xlink="http://www.w3.org/1999/xlink">
    <title>展商名录</title>
    <g id="用户端" stroke="none" stroke-width="1" fill="none" fill-rule="evenodd">
        <g id="pc端" transform="translate(-4935.000000, -175.000000)" fill="#6D7587" fill-rule="nonzero">
            <g id="编组-14" transform="translate(4935.000000, 175.000000)">
                <g id="展商名录" transform="translate(0.000000, 0.000000)">
                    <path d="M19.9989756,2.99243999 L19.9784879,19.6930328 C19.9767945,20.421255 19.386276,21.0108572 18.6580521,21.0114197 L4.66491605,21.0114197 L4.66798921,21.022688 L3.58726018,21.022688 C2.92653011,21.022688 2.2760439,20.9263956 1.71263067,20.5596648 C0.780437872,19.9532273 0.19243931,19.1029855 0.0531225916,17.9812809 C0.0162138772,17.7134914 -0.000905626428,17.4433455 0.00190322634,17.173039 C-3.63434073e-05,12.7169525 -0.00116993678,8.26086598 0.00190322634,3.80477946 C0.00190322634,3.18912246 0.0971712829,2.59497757 0.352243822,2.01927169 C0.601170034,1.45790722 0.99146175,1.04098144 1.46370446,0.668104297 C2.08550779,0.177422576 2.79745725,9.05834005e-05 3.5688212,9.05834005e-05 C7.20949511,-0.000820854624 14.0565025,0.00532547161 16.2015704,0.0104473901 C16.5662524,0.0114717678 16.8612761,0.307519835 16.8612761,0.672201838 L16.8612761,13.4524629 C16.8612761,13.8171449 16.5642036,14.1142173 16.1995216,14.1142173 L4.43033128,14.1131929 C1.02833971,14.1131929 0.999656861,19.704301 4.35657536,19.704301 L4.35657536,19.7053254 L18.6601009,19.7053254 C18.6685872,19.7053254 18.6754667,19.6984459 18.6754667,19.6899596 L18.6959545,2.99039123 C18.7200326,2.64766418 19.0053623,2.38209561 19.3489337,2.38263538 C19.6925051,2.38317516 19.9769988,2.64963898 20,2.99243999 L19.9989756,2.99243999 Z M16.0622537,16.0707978 L5.00091521,16.0707978 C4.64053009,16.0707978 4.34838024,16.3629477 4.34838024,16.7233328 C4.34838024,17.0837179 4.64053009,17.3758678 5.00091521,17.3758678 L16.0612293,17.3758678 C16.2943576,17.3758678 16.509777,17.2514953 16.6263412,17.0496003 C16.7429053,16.8477053 16.7429053,16.5989603 16.6263412,16.3970653 C16.509777,16.1951703 16.2943576,16.0707978 16.0612293,16.0707978 L16.0622537,16.0707978 Z" id="形状"></path>
                </g>
            </g>
        </g>
    </g>
</svg>