<?xml version="1.0" encoding="UTF-8"?>
<svg width="44px" height="44px" viewBox="0 0 44 44" version="1.1" xmlns="http://www.w3.org/2000/svg" xmlns:xlink="http://www.w3.org/1999/xlink">
    <title>编组 12</title>
    <defs>
        <radialGradient cx="46.9091818%" cy="0%" fx="46.9091818%" fy="0%" r="182.285983%" id="radialGradient-1">
            <stop stop-color="#FF681D" offset="0%"></stop>
            <stop stop-color="#CB0000" offset="100%"></stop>
        </radialGradient>
    </defs>
    <g id="用户端" stroke="none" stroke-width="1" fill="none" fill-rule="evenodd">
        <g id="移动端" transform="translate(-489.000000, -361.000000)">
            <g id="编组-16" transform="translate(489.000000, 361.000000)">
                <rect id="矩形" fill="url(#radialGradient-1)" x="0" y="0" width="44" height="44" rx="3"></rect>
                <g id="独角兽" transform="translate(9.000000, 7.000000)" fill="#FFFFFF" fill-rule="nonzero">
                    <path d="M19.3439389,11.5775387 L20.0083626,10.8458142 C20.0083626,10.8458142 20.3405744,10.479952 19.3439389,10.1140898 C18.6795153,9.74822755 17.9966354,9.0165031 17.3322118,9.38236532 L17,9.74822755 C17.217149,10.4167601 17.5617472,11.0377656 18.0150917,11.5775387 C18.3288473,11.9434009 18.6610591,12.3092631 19.3439389,11.5775387 L19.3439389,11.5775387 Z M22.3523015,8.30307178 C21.9561157,7.87769317 21.5027632,7.50836762 21.004998,7.2054851 C20.3405744,6.83962287 19.6576945,7.57134732 19.6576945,7.57134732 L17.9781792,9.03479621 C18.6426029,9.03479621 20.3221182,10.4982451 20.3221182,10.4982451 L22.3523015,8.30307178 Z M22.0200897,7.57134732 C22.0200897,7.57134732 22.3523015,8.30307178 23.3673932,7.2054851 L24.3824848,6.10789841 L24.7146967,5.74203619 L23.699605,5.01031173 C23.699605,5.01031173 23.3673932,4.6444495 22.6845133,5.37617396 C22.208851,5.85511806 21.6365338,6.22913534 21.004998,6.47376064 C21.004998,6.47376064 20.6727862,6.47376064 21.004998,6.83962287 L22.0200897,7.57134732 Z M23.699605,4.66274262 L24.7146967,5.37617396 L26.7264238,3.19929371 L26.0435439,2.83343151 L23.699605,4.66274262 L23.699605,4.66274262 Z M26.3203871,2.46756928 L26.9848108,2.83343151 L29.7347864,0.290689024 C29.7347864,0.290689024 31.4143017,-1.17275989 26.3203871,2.46756928 L26.3203871,2.46756928 Z" id="形状"></path>
                    <path d="M25.0194955,18.4877236 L22.6990795,16.6689906 C22.6990795,16.6689906 20.0315147,14.5046984 19.0448812,13.7772052 C17.6227437,12.7435393 16.4802254,11.3750459 15.7195607,9.79418005 C15.4887616,8.32431582 15.134275,6.87635904 14.6598431,5.46559564 C14.6598431,5.46559564 14.3309653,4.73810245 14.0020874,5.10184905 C13.1250798,6.04759018 13.2712477,9.23037283 13.3260607,10.012428 C12.9550501,9.41629514 12.5133764,8.86673093 12.0105493,8.37556837 C10.3478891,6.55683541 6.69369071,7.64807519 7.69859524,7.64807519 C8.42391991,7.67026225 9.12256239,7.92547084 9.69013336,8.37556837 C8.21773719,8.31858133 6.7494771,8.56629946 5.3781793,9.10306152 C6.33325219,8.90126913 7.32736218,9.17238091 8.04574409,9.83055471 C5.72532812,9.10306152 2.07112976,11.9948469 2.07112976,11.9948469 C2.97009627,11.960359 3.86352791,11.8385315 4.73869458,11.6311003 C2.76238336,12.7259217 1.13522403,14.3519327 0.0430496906,16.3234313 C0.838689125,15.4749608 1.74873243,14.7404666 2.74715646,14.1409518 C-0.559893042,18.4877236 0.0430496906,25.744468 0.0430496906,25.744468 C0.0430496906,25.744468 0.371927545,25.744468 3.36837019,25.3807214 C2.71061448,19.2334041 4.37327474,17.0509245 4.37327474,17.0509245 C4.37327474,17.0509245 4.7021526,23.9257351 4.7021526,24.6532283 C4.7021526,25.3807214 5.35990831,25.744468 6.36481286,25.744468 C8.91323307,26.2768715 11.302548,27.3913454 13.3443317,29 L16.0484385,29 C15.2161597,26.2667098 13.7374905,23.7719668 11.7364845,21.7250682 C10.9596747,21.1168253 10.2817676,20.3929457 9.72667534,19.5789633 C8.72177079,18.123977 9.39779749,18.4877236 9.39779749,18.4877236 C9.39779749,18.4877236 9.72667534,18.4877236 10.402702,19.5789633 C11.0525394,20.4090757 12.0176763,20.9354963 13.0702668,21.0339497 C13.3991447,21.0339497 18.3871254,21.3976963 19.7209079,21.3976963 C20.2729778,21.320736 20.8326949,21.4713017 21.2706746,21.8145885 C21.7086544,22.1578753 21.9869837,22.6641671 22.0413238,23.2164292 C22.0413238,23.9439224 22.3702017,23.9439224 22.6990795,23.9439224 C24.3617398,23.5801758 23.3568352,22.8526826 23.3568352,22.488936 C23.3568352,22.1251894 21.3652971,20.3246438 21.3652971,20.3246438 L21.694175,20.3246438 C22.5623671,21.0760734 23.3409452,21.924316 24.0145909,22.8526826 C23.6857131,22.488936 25.3483733,20.6883904 25.6772512,20.3246438 C26.6821557,19.2152167 25.0194955,18.4877236 25.0194955,18.4877236 L25.0194955,18.4877236 Z M17.0533431,15.2321916 L15.0618049,14.1409518 C14.4040492,13.7772052 14.7329271,13.4134586 14.7329271,13.4134586 C15.0618049,12.6859655 15.7378316,13.4134586 15.7378316,13.4134586 L16.7427362,14.5046984 C17.3822209,15.2321916 17.0533431,15.2321916 17.0533431,15.2321916 L17.0533431,15.2321916 Z" id="形状"></path>
                </g>
            </g>
        </g>
    </g>
</svg>