<?xml version="1.0" encoding="UTF-8"?>
<svg width="114px" height="32px" viewBox="0 0 114 32" version="1.1" xmlns="http://www.w3.org/2000/svg" xmlns:xlink="http://www.w3.org/1999/xlink">
    <title>编组 38</title>
    <defs>
        <linearGradient x1="7.65400354%" y1="46.9099047%" x2="100%" y2="53.9396737%" id="linearGradient-1">
            <stop stop-color="#44DEC5" offset="0%"></stop>
            <stop stop-color="#4EBCFA" offset="100%"></stop>
        </linearGradient>
    </defs>
    <g id="用户端" stroke="none" stroke-width="1" fill="none" fill-rule="evenodd">
        <g id="移动端" transform="translate(-1513.000000, -687.000000)">
            <g id="编组-38" transform="translate(1513.000000, 687.000000)">
                <rect id="矩形" fill="url(#linearGradient-1)" x="0" y="0" width="114" height="32" rx="16"></rect>
                <text id="在线沟通" font-family="PingFangSC-Medium, PingFang SC" font-size="14" font-weight="400" fill="#FFFFFF">
                    <tspan x="40" y="21">在线沟通</tspan>
                </text>
                <g id="消-息" transform="translate(15.000000, 8.000000)" fill="#FFFFFF" fill-rule="nonzero">
                    <path d="M15.4212851,0.000588112706 L1.64161836,0.000588112706 C1.20549826,-0.00295499228 0.786207376,0.16809871 0.477813647,0.475373306 C0.169419919,0.782647902 -0.00225678238,1.20041722 0.00129922704,1.63495468 L0.00129922704,12.031652 C-0.0164611053,12.4762612 0.148485013,12.9088657 0.458050496,13.2295743 C0.767615979,13.5502829 1.19503663,13.731368 1.64161836,13.731016 L4.46325123,13.731016 L4.46325123,16.0850697 C4.45788609,16.3293963 4.55298967,16.5652902 4.72649799,16.7380242 C4.90000631,16.9107581 5.13683893,17.005319 5.38205081,16.9997687 C5.62280001,16.9827515 5.85222181,16.8913158 6.03833623,16.7382072 L9.05648004,13.731016 L15.3552621,13.731016 C15.7915184,13.7347709 16.2110137,13.5638108 16.5195791,13.2565129 C16.8281445,12.949215 17,12.5313243 16.9963701,12.0966494 L16.9963701,1.63497433 C17.0261151,1.20449003 16.8720233,0.781507551 16.5720677,0.470262446 C16.272112,0.159017341 15.8541882,-0.0115447575 15.4212851,0.000607761258 L15.4212851,0.000588112706 Z M10.5655421,9.67681232 L3.47921752,9.67681232 C3.00802416,9.67681232 2.62604648,9.2962208 2.62604648,8.82673737 C2.62604648,8.35725393 3.00802416,7.97666241 3.47921752,7.97666241 L10.5655421,7.97666241 C11.0367354,7.97666241 11.4187131,8.35725393 11.4187131,8.82673737 C11.4187131,9.2962208 11.0367354,9.67681232 10.5655421,9.67681232 L10.5655421,9.67681232 Z M13.584455,5.75338944 L3.47842871,5.75338944 C3.25040353,5.7603231 3.02962829,5.67311524 2.86831321,5.51238927 C2.70699812,5.3516633 2.61946752,5.13169126 2.62642116,4.90449339 C2.6334218,4.43784028 3.01088451,4.06098105 3.47921752,4.05402547 L13.5836859,4.05402547 C14.052788,4.061767 14.4302507,4.43785993 14.4380204,4.90449339 C14.44523,5.13224116 14.3574844,5.35279999 14.1956279,5.51377497 C14.0337715,5.67474994 13.8122496,5.76177445 13.5836859,5.75417538 L13.584455,5.75338944 Z" id="形状"></path>
                </g>
            </g>
        </g>
    </g>
</svg>