<?xml version="1.0" encoding="UTF-8"?>
<svg width="44px" height="44px" viewBox="0 0 44 44" version="1.1" xmlns="http://www.w3.org/2000/svg" xmlns:xlink="http://www.w3.org/1999/xlink">
    <title>编组 12</title>
    <defs>
        <radialGradient cx="46.9091818%" cy="0%" fx="46.9091818%" fy="0%" r="182.285983%" id="radialGradient-1">
            <stop stop-color="#FF681D" offset="0%"></stop>
            <stop stop-color="#CB0000" offset="100%"></stop>
        </radialGradient>
    </defs>
    <g id="用户端" stroke="none" stroke-width="1" fill="none" fill-rule="evenodd">
        <g id="移动端" transform="translate(-410.000000, -361.000000)">
            <g id="编组-15" transform="translate(410.000000, 361.000000)">
                <rect id="矩形" fill="url(#radialGradient-1)" x="0" y="0" width="44" height="44" rx="3"></rect>
                <g id="瞪羚" transform="translate(9.000000, 8.000000)" fill="#FFFFFF" fill-rule="nonzero">
                    <path d="M23.6156326,9 L20,9 C20,9 20.4568896,10.4461538 20.2143433,11.0061538 C20.3271555,11.0061538 21.7373086,9.9353846 22.7695407,10.6861538 C23.4182111,11.3015385 25.443191,13.6215385 25.443191,13.6215385 L24.9750201,14.3046154 L25.2062853,15 L27,14.3846154 L27,13.6523077 L23.6156326,9 Z" id="路径"></path>
                    <path d="M16.6144843,6.10396067 C17.0768105,5.81634665 17.9253841,4.19631663 19.0197513,4.3430585 L18.809071,3.85587555 C17.7446062,3.5456878 16.6232347,3.48543527 15.5318215,3.67978533 L15.4381858,3.67978533 L15.29188,3.39804099 C15.29188,3.39804099 15.367959,3.20434175 15.1338698,3.18086304 L14.9641551,2.99303348 C14.9641551,2.99303348 15.0168252,2.82868263 14.7651792,2.79346456 C14.6932931,2.72408623 14.6170587,2.65938789 14.5369422,2.59976532 C14.5369687,2.55202828 14.5176703,2.50632601 14.4834683,2.47312865 C14.4492663,2.43993129 14.4030918,2.42208385 14.355523,2.4236751 L14.3204096,2.4236751 L14.0746159,2.26519392 C14.0746159,2.26519392 14.0746159,2.13019142 13.8405267,2.13019142 L13.5303584,1.96584053 C13.5303584,1.96584053 13.5303584,1.82496835 13.3255304,1.86018642 L12.9568398,1.70757487 C12.9568398,1.70757487 12.9041697,1.53148465 12.6759327,1.60779043 L12.3833211,1.51974531 C12.3701953,1.48466679 12.3436775,1.4562779 12.3096322,1.44085675 C12.2755868,1.42543559 12.2368189,1.42425277 12.201902,1.43756987 C12.1864553,1.43440743 12.1705308,1.43440743 12.1550841,1.43756987 L11.7805413,1.39061249 C11.7805413,1.39061249 11.7278712,1.26734933 11.5523043,1.39061249 L11.3591807,1.39061249 C11.3591807,1.39061249 11.2889539,1.26147967 11.113387,1.39061249 L10.9202633,1.39061249 C10.8882309,1.35687821 10.8438135,1.33778542 10.7973665,1.33778542 C10.7509195,1.33778542 10.7065021,1.35687821 10.6744696,1.39061249 L10.4637893,1.39061249 C10.4637893,1.39061249 10.405267,1.26734933 10.1945867,1.34365509 L9.98390637,1.34365509 C10.0541331,1.34365509 9.93708851,1.20865258 9.77322605,1.28495834 L9.51572787,1.22039195 C9.51572787,1.22039195 9.51572787,1.14408619 9.32845648,1.17930423 C9.1270448,1.12042291 8.93121,1.0438197 8.74323335,0.950386946 C8.41182338,0.700779707 8.12660044,0.394840465 7.90051207,0.0464571587 C7.90051207,-0.00636990013 7.76591075,-0.0239789197 7.7542063,0.0464571587 C7.96285385,0.449274994 8.24932172,0.806431822 8.59692758,1.09712878 C8.76028674,1.23148636 8.93907263,1.34577744 9.12948061,1.43756987 C9.17980423,1.47993166 9.2403523,1.50827164 9.30504755,1.51974531 L9.52158011,1.61366009 C9.55871318,1.69302783 9.65142173,1.72918862 9.73226043,1.69583553 L9.98390637,1.75453227 C10.0365764,1.84844705 10.1536211,1.81322901 10.2062911,1.75453227 L10.4637893,1.80148967 C10.5199149,1.84771507 10.6007874,1.84771507 10.656913,1.80148967 L10.8441843,1.80148967 C10.8998835,1.84258863 10.9757565,1.84258863 11.0314557,1.80148967 L11.3240673,1.86605607 C11.3820649,1.91319991 11.4650456,1.91319991 11.5230432,1.86605607 L11.7922458,1.93649218 C11.8449159,2.02453727 11.9619605,1.99518892 11.9795172,1.99518892 L12.2077542,2.05975531 C12.2721288,2.18888813 12.4418435,2.15953978 12.4594001,2.15953978 L12.7227505,2.27693326 C12.7562858,2.35497301 12.8378844,2.40070814 12.9217264,2.38845706 L13.1733723,2.54693826 C13.211855,2.62615826 13.2904301,2.67794723 13.3782004,2.68194076 L13.5420629,2.81694326 C13.5420629,2.96955478 13.7059254,2.95194576 13.7059254,2.95194576 C13.7594683,2.99782647 13.8102753,3.04682496 13.8580834,3.0986876 C13.8580834,3.2571688 14.0336503,3.27477782 14.0395026,3.28651719 L14.1741039,3.43325903 C14.1765694,3.51358629 14.2312826,3.58277818 14.3087052,3.60347957 L14.4023409,3.73848207 C14.3844588,3.78169584 14.3844588,3.8302708 14.4023409,3.87348457 L14.1565472,4.06718381 L14.0980249,4.06718381 L14.0453548,4.21979533 C14.0453548,4.21979533 14.0453548,4.10827153 13.8697879,4.10827153 L13.6766642,3.99087805 C13.6766642,3.99087805 13.7234821,3.89109359 13.5362107,3.89696327 L13.343087,3.77956979 C13.3074879,3.68490983 13.2068986,3.63194304 13.1089978,3.65630663 L12.9217264,3.55652219 C12.9217264,3.55652219 12.9217264,3.39217133 12.6934894,3.43325903 L12.4769568,3.33347456 C12.4769568,3.33347456 12.4769568,3.17499336 12.2311631,3.21608108 L12.0555962,3.13977532 C12.0555962,3.13977532 12.0555962,2.96955478 11.7337235,3.02825152 L11.4762253,2.93433674 C11.4762253,2.93433674 11.5581565,2.81107358 11.2304316,2.85803098 L10.93782,2.75237684 C10.93782,2.75237684 10.93782,2.62911368 10.6920263,2.6936801 L10.405267,2.6291137 C10.405267,2.6291137 10.405267,2.55280794 10.2121434,2.6291137 L10.0950988,2.52932924 C10.0950988,2.52932924 10.1360644,2.37671772 9.89612289,2.52932924 L9.60936356,2.52932924 C9.60936356,2.52932924 9.60936356,2.39432674 9.41623993,2.52932924 L9.15288954,2.52932924 C9.15288954,2.47650218 9.10021946,2.44128414 8.95976591,2.52932924 C8.44135496,2.5612133 7.92148337,2.5612133 7.40307242,2.52932924 C6.83834633,2.48138614 6.29771094,2.27829746 5.84052669,1.94236183 C5.82825045,1.92041814 5.8077082,1.90433314 5.78350485,1.89771255 C5.75930151,1.89109197 5.73346161,1.89448959 5.71177762,1.90714379 C5.67139233,1.92807269 5.65361769,1.97646194 5.67081199,2.01866759 C6.11400179,2.53614706 6.6974976,2.91338909 7.35040235,3.10455728 C7.79490464,3.15924644 8.24299991,3.17887224 8.69056327,3.16325402 C8.70946651,3.18575397 8.73730671,3.19873942 8.76664228,3.19873942 C8.79597785,3.19873942 8.82381804,3.18575397 8.84272128,3.16325402 L9.07095829,3.16325402 C9.09954649,3.19229026 9.13853816,3.2086335 9.17922457,3.2086335 C9.21991099,3.2086335 9.25890266,3.19229026 9.28749085,3.16325402 L9.49817118,3.16325402 C9.5105318,3.18822012 9.53274084,3.20686245 9.5594211,3.21466738 C9.58610137,3.22247232 9.61482036,3.21872828 9.63862473,3.20434175 C9.65576309,3.19646352 9.66859688,3.18144614 9.67373811,3.16325402 L9.8610095,3.21021143 C9.91367958,3.29825653 10.0482809,3.26890817 10.0716898,3.26890814 L10.3174835,3.32760488 C10.3760058,3.42738934 10.5106072,3.40391064 10.5281638,3.40391064 L10.7037308,3.46260738 C10.7505486,3.56239185 10.88515,3.53891314 10.9027067,3.53891314 L11.1250914,3.62108859 C11.1824161,3.70643482 11.2801207,3.75543277 11.3825896,3.75022143 L11.5581565,3.83239685 C11.6049744,3.97326903 11.8039503,3.96739935 11.8215069,3.96152969 L12.0204828,4.06718381 C12.0204828,4.20218631 12.2428676,4.18457729 12.2428676,4.18457729 L12.4008778,4.29023144 C12.4594001,4.40762492 12.6349671,4.43697328 12.6466715,4.44871261 L12.8163862,4.56023644 C12.8309051,4.62072068 12.889948,4.6593417 12.9509875,4.64828154 L13.0855889,4.75393566 C13.0740895,4.77391258 13.0740895,4.79852516 13.0855889,4.81850208 L12.5003658,4.81850208 L12.0965618,4.33131913 L9.94879299,4.33131913 L10.2472568,5.17655221 L13.3489393,5.47590556 C14.2601389,6.70584579 14.6664716,8.23938671 14.4842721,9.76076756 C14.3906364,10.1188177 12.658376,10.3183866 12.1433796,11.6684116 C11.4469641,11.6684116 8.85442573,11.5686271 7.14557424,13.2590932 L4.05559619,13.2590932 C4.05559619,13.2590932 3.28895391,13.9634541 3.47037309,14.3508526 C3.65179227,14.7382511 5.08558889,14.9847774 5.37234822,14.1160656 C5.65910754,13.3823564 6.15069497,14.0397599 6.15069495,14.0397599 C6.15069492,14.0397599 6.98756399,15.2665217 6.39063644,16.1058851 C5.79370888,16.9452485 3.68105341,18.9115893 3.25384053,19.8566068 C2.43764447,21.6727125 1.78543589,23.5585576 1.30504755,25.4914938 C0.889006888,25.6594934 0.447936404,25.7566991 0,25.7791078 L0,26.4130326 L16.2516459,27 L16.2516459,26.4130326 L18.656913,26.2545514 L18.8441843,25.667584 C18.8441843,25.667584 21.6766642,25.4680151 22.0160936,25.4680151 C22.355523,25.4680151 22.0160936,24.7460452 22.0160936,24.7460452 L14.6305779,24.2764713 L14.4784199,24.605173 L14.4198976,24.605173 L14.4784199,23.75994 L13.6356986,23.4312382 L10.3818581,20.7311882 C10.3818581,20.7311882 9.76737381,20.0913937 10.3116313,19.8096494 C10.8558888,19.5279051 12.9685443,17.1859051 13.2377469,17.062642 C13.3138259,17.0215542 13.82297,16.8161157 14.4081931,16.540241 C15.5786394,16.000231 17.2114119,15.172607 17.4572056,14.5915092 C17.8493051,14.5915092 21.7234821,14.4858551 22.2677396,15.4308726 C22.2677396,16.01784 22.2092173,18.0428775 20.6525238,18.2659251 C20.6349757,18.4945041 20.6349757,18.724098 20.6525238,18.952677 L22.6949525,18.952677 L24,16.3758901 L24,14.7675994 L19.6576445,11.9912437 C19.6576445,11.9912437 20.3013899,7.70638166 16.6730066,6.12156971 L16.6144843,6.10396067 Z M9.36356986,17.9137447 L9.28163862,17.7787422 C8.78197608,18.4120307 8.41204814,19.1381334 8.19312363,19.9153035 C8.19312363,20.015088 8.19312363,20.4553135 8.43306509,20.6314037 L12.4886613,23.5662407 L12.4886613,24.29995 L3.71031456,24.6521304 C3.03730797,24.6521304 2.27066569,26.4130326 2.27066569,26.4130326 C2.27538291,26.157756 2.29492345,25.9029719 2.32918801,25.649975 C2.81332328,21.8400653 5.55095043,18.7043443 9.25237747,17.7200455 L9.25237747,17.6613487 C10.8679691,17.0192567 12.5703554,16.6235533 14.302853,16.4874139 C12.5944082,16.6980545 10.9284724,17.1712126 9.36356986,17.890266 L9.36356986,17.9137447 Z" id="形状"></path>
                </g>
            </g>
        </g>
    </g>
</svg>