<?xml version="1.0" encoding="UTF-8"?>
<svg width="44px" height="44px" viewBox="0 0 44 44" version="1.1" xmlns="http://www.w3.org/2000/svg" xmlns:xlink="http://www.w3.org/1999/xlink">
    <title>编组 12</title>
    <defs>
        <radialGradient cx="46.9091818%" cy="0%" fx="46.9091818%" fy="0%" r="182.285983%" id="radialGradient-1">
            <stop stop-color="#FF681D" offset="0%"></stop>
            <stop stop-color="#CB0000" offset="100%"></stop>
        </radialGradient>
    </defs>
    <g id="用户端" stroke="none" stroke-width="1" fill="none" fill-rule="evenodd">
        <g id="移动端" transform="translate(-647.000000, -361.000000)">
            <g id="编组-18" transform="translate(647.000000, 361.000000)">
                <rect id="矩形" fill="url(#radialGradient-1)" x="0" y="0" width="44" height="44" rx="3"></rect>
                <g id="服务-" transform="translate(10.000000, 11.000000)" fill="#FFFFFF" fill-rule="nonzero">
                    <path d="M5.5702403,0 C2.49260628,0 0,2.49566724 0,5.57088388 C0,8.64887348 2.49537893,11.1417678 5.5702403,11.1417678 L11.1432532,11.1417678 L11.1432532,5.57088388 C11.1432532,2.49289428 8.64787431,0 5.5702403,0 L5.5702403,0 Z M24,5.57088388 C24,2.49289428 21.5046211,0 18.4297597,0 C15.3548983,0 12.8567468,2.49566724 12.8567468,5.57088388 L12.8567468,11.1417678 L18.4297597,11.1417678 C21.5046211,11.1417678 24,8.64887348 24,5.57088388 L24,5.57088388 Z M0,18.4291161 C0,21.5071057 2.49537893,24 5.5702403,24 C8.64787431,24 11.1404806,21.5071057 11.1404806,18.4291161 L11.1404806,12.8582322 L5.5702403,12.8582322 C2.49537893,12.8582322 0,15.3511265 0,18.4291161 L0,18.4291161 Z M18.4269871,12.8582322 L12.8539741,12.8582322 L12.8539741,18.4291161 C12.8539741,21.5071057 15.349353,24 18.4269871,24 C21.5046211,24 23.9972297,21.5043328 23.9972297,18.4291161 C24,15.3511265 21.5046211,12.8582322 18.4269871,12.8582322 L18.4269871,12.8582322 Z" id="形状"></path>
                </g>
            </g>
        </g>
    </g>
</svg>