<?xml version="1.0" encoding="UTF-8"?>
<svg width="44px" height="44px" viewBox="0 0 44 44" version="1.1" xmlns="http://www.w3.org/2000/svg" xmlns:xlink="http://www.w3.org/1999/xlink">
    <title>编组 12</title>
    <defs>
        <radialGradient cx="46.9091818%" cy="0%" fx="46.9091818%" fy="0%" r="182.285983%" id="radialGradient-1">
            <stop stop-color="#FF681D" offset="0%"></stop>
            <stop stop-color="#CB0000" offset="100%"></stop>
        </radialGradient>
    </defs>
    <g id="用户端" stroke="none" stroke-width="1" fill="none" fill-rule="evenodd">
        <g id="移动端" transform="translate(-173.000000, -361.000000)">
            <g id="编组-12" transform="translate(173.000000, 361.000000)">
                <rect id="矩形" fill="url(#radialGradient-1)" x="0" y="0" width="44" height="44" rx="3"></rect>
                <g id="科技" transform="translate(11.000000, 10.000026)" fill="#FFFFFF" fill-rule="nonzero">
                    <path d="M21.2785362,13.4425024 C23.2590183,16.8861713 23.6615033,19.9337224 21.796017,21.7967636 C19.9318034,23.6623505 16.8844165,23.2572732 13.4396604,21.279255 C15.1007099,20.0244412 16.5496362,18.6853225 17.6178387,17.6158146 C18.9333718,16.3112929 20.1565575,14.9168221 21.2785362,13.4425024 L21.2785362,13.4425024 Z M21.796017,1.20245868 C24.7360446,4.14524026 22.0349426,10.0269351 16.412929,15.7655513 L16.0909509,16.0900924 C10.2517232,21.9296348 4.19909947,24.7893594 1.20282176,21.7941931 C-1.7921832,18.7964811 1.06866007,12.7473746 6.90788784,6.90783219 C12.7471156,1.06701696 18.8010121,-1.79270768 21.796017,1.20245868 Z M11.498783,8.56385498 C10.0373149,8.56739402 8.84746034,9.73994873 8.82243976,11.2012857 C8.79741919,12.6626227 9.94643572,13.8752272 11.406926,13.9288005 C12.8674163,13.9823739 14.102177,12.8572105 14.1842769,11.3979673 C14.2663767,9.93872402 13.1656174,8.68214561 11.7083358,8.57154174 L11.5000558,8.56385498 L11.498783,8.56385498 Z M9.56047604,1.72124017 C7.89942657,2.97605398 6.45047534,4.31517258 5.38227279,5.38468054 C4.06781973,6.68984158 2.84510832,8.08426601 1.72287299,9.55799275 C-0.258906765,6.11432386 -0.66139183,3.06677273 1.20282176,1.20373149 C3.06703536,-0.661855369 6.11569501,-0.255505235 9.55917834,1.72124017 L9.56047604,1.72124017 Z" id="形状"></path>
                </g>
            </g>
        </g>
    </g>
</svg>