<?xml version="1.0" encoding="UTF-8"?>
<svg width="30px" height="30px" viewBox="0 0 30 30" version="1.1" xmlns="http://www.w3.org/2000/svg" xmlns:xlink="http://www.w3.org/1999/xlink">
    <title>全景@1x</title>
    <g id="用户端" stroke="none" stroke-width="1" fill="none" fill-rule="evenodd">
        <g id="移动端" transform="translate(-572.000000, -4973.000000)" fill="#EB0818" fill-rule="nonzero">
            <g id="编组-11" transform="translate(572.000000, 4973.000000)">
                <g id="电--话" transform="translate(6.000000, 3.000000)">
                    <path d="M12.0207521,16.7262074 C12.0642552,16.6980834 12.5359204,16.3980934 12.6732986,16.3113776 C12.9274483,16.1543516 13.1380949,16.0348244 13.3487415,15.9387338 C14.8278469,15.2496945 16.1306503,15.7371781 17.8547468,17.7996089 C18.9217176,19.0769098 19.2376874,20.208903 18.8255528,21.2190254 C18.5187415,21.9736876 17.9280152,22.4939826 16.8747822,23.1361486 C16.8060931,23.175991 16.201629,23.5369164 16.0459337,23.6376943 C13.5960222,25.1845173 7.98412233,21.6432299 3.94520294,15.5918705 C-0.100585339,9.52410533 -1.14923902,3.05791606 1.33272731,1.48765626 L1.66014539,1.27438216 L2.01503909,1.03767135 C3.26976008,0.208011692 4.07342261,-0.124789634 5.02591155,0.0416110175 C5.97611084,0.208011692 6.78664229,0.929862459 7.4712437,2.23997475 C8.9137149,5.01488164 8.59545539,6.33202495 6.73855989,7.52729735 C6.60576097,7.61635685 6.13180613,7.9069721 6.08601341,7.93743983 C5.63037569,8.22571141 6.40198329,10.1568966 8.1924793,12.8404003 C10.0081613,15.5543718 11.5239009,17.0402594 12.0207521,16.7262074 Z" id="路径"></path>
                </g>
            </g>
        </g>
    </g>
</svg>