<?xml version="1.0" encoding="UTF-8"?>
<svg width="19px" height="22px" viewBox="0 0 19 22" version="1.1" xmlns="http://www.w3.org/2000/svg" xmlns:xlink="http://www.w3.org/1999/xlink">
    <title>登录</title>
    <g id="用户端" stroke="none" stroke-width="1" fill="none" fill-rule="evenodd">
        <g id="移动端" transform="translate(-797.000000, -1396.000000)" fill="#6D7587" fill-rule="nonzero">
            <g id="登录" transform="translate(797.000000, 1396.000000)">
                <path d="M12.5860475,13.4626362 C12.4482095,13.4183254 11.5778003,13.0310283 12.1215924,11.3980979 L12.1139258,11.3980979 C13.5314128,9.95694328 14.6146161,7.63637846 14.6146161,5.35252827 C14.6146161,1.84037338 12.2490658,0 9.50053426,0 C6.75037328,0 4.39849987,1.84034701 4.39849987,5.35252827 C4.39849987,7.64555712 5.47569277,9.97530059 6.90191488,11.4132374 C7.45775444,12.852783 6.46371842,13.3875453 6.25581284,13.4626098 C3.37710996,14.4905666 0,16.3644368 0,18.2139624 L0,18.9070038 C0,21.4268879 4.94830233,22 9.52791486,22 C14.1140453,22 19,21.4268879 19,18.9070038 L19,18.2139624 C19,16.3087846 15.6059274,14.4500539 12.5860475,13.4626362 L12.5860475,13.4626362 Z" id="路径"></path>
            </g>
        </g>
    </g>
</svg>