<?xml version="1.0" encoding="UTF-8"?>
<svg width="26px" height="25px" viewBox="0 0 26 25" version="1.1" xmlns="http://www.w3.org/2000/svg" xmlns:xlink="http://www.w3.org/1999/xlink">
    <title>地图</title>
    <g id="用户端" stroke="none" stroke-width="1" fill="none" fill-rule="evenodd">
        <g id="移动端" transform="translate(-212.000000, -1395.000000)" fill="#E40212" fill-rule="nonzero">
            <g id="地图" transform="translate(212.000000, 1395.000000)">
                <path d="M25.8937901,20.2497048 L23.9618532,15.2410468 C23.2553162,13.2713499 21.2819806,12 18.9277774,12 L18.6048679,12 L18.3730355,12.2072019 C18.356476,12.2199921 16.7971269,13.6192444 15.5800066,14.6475797 C14.3794458,15.6631248 13.9406201,15.9931129 13.5376733,16.1900826 C13.3086007,16.3026368 12.657262,16.2847304 12.4530287,16.1875246 C12.2432755,16.0877607 11.7188926,15.7347501 10.4051755,14.6347895 C9.42540744,13.813656 7.64802543,12.2225502 7.62870606,12.2072019 L7.39687362,12 L7.07948398,12 C4.7280407,12 2.75470508,13.2687918 2.04816813,15.2333727 L0.110711344,20.2292405 L0.105191524,20.2471468 C-0.104561633,20.8329398 0.00307485553,21.482684 0.394982069,21.9840614 C0.784129372,22.4854388 1.41614875,22.7847304 2.08404696,22.7847304 L2.1226857,22.7847304 L9.70139843,22.1119638 C10.7418845,22.1119638 10.7943228,22.1196379 11.4484214,22.5263676 L13.4162372,24.2786305 L13.4962746,24.3221173 C14.3214877,24.7723337 15.2488174,25 16.1844269,25 C16.7612481,25 17.3435891,24.9130264 17.9010909,24.733963 L23.7107014,22.8921684 C23.9232144,22.8256592 24.1550469,22.7796143 24.3316811,22.7463597 C24.9140221,22.6389217 25.4218455,22.3038174 25.7226757,21.8254624 C26.0179861,21.3496655 26.081464,20.7741047 25.8937901,20.2497048 L25.8937901,20.2497048 Z" id="路径"></path>
                <path d="M10.1316495,11.7969598 C10.6750112,12.6302932 11.2749218,13.4011944 11.8207421,13.965798 C12.720608,14.8941368 13.2098793,15 13.5,15 C13.7901207,15 14.2769334,14.8914224 15.1767993,13.965798 C15.7226196,13.4011944 16.3225302,12.6330076 16.8658918,11.7996743 C17.4658024,10.8767644 17.9772016,9.91313789 18.3386232,9.0092291 C18.7787215,7.91802389 19,6.92996743 19,6.07491857 C19,2.72529859 16.5315154,0 13.4975414,0 C10.4635673,0 8,2.72529859 8,6.07491857 C8,6.92996743 8.2212785,7.91802389 8.66137684,9.0092291 C9.02279839,9.91042345 9.53173894,10.8740499 10.1316495,11.7969598 Z M13.5,4.05537459 C14.5277157,4.05537459 15.361198,4.97557003 15.361198,6.1102063 C15.361198,7.24484256 14.5277157,8.165038 13.5,8.165038 C12.4722843,8.165038 11.638802,7.24484256 11.638802,6.1102063 C11.6412606,4.97557003 12.4722843,4.05537459 13.5,4.05537459 Z" id="形状"></path>
            </g>
        </g>
    </g>
</svg>