<?xml version="1.0" encoding="UTF-8"?>
<svg width="21px" height="24px" viewBox="0 0 21 24" version="1.1" xmlns="http://www.w3.org/2000/svg" xmlns:xlink="http://www.w3.org/1999/xlink">
    <title>商机</title>
    <g id="用户端" stroke="none" stroke-width="1" fill="none" fill-rule="evenodd">
        <g id="移动端" transform="translate(-602.000000, -1397.000000)" fill="#6D7587" fill-rule="nonzero">
            <g id="商机" transform="translate(602.000000, 1397.000000)">
                <path d="M0.0438631222,10.064 L0.0438631222,9.944 L0.0438631222,10.064 Z M20.2934769,10 C20.2934769,7.246 19.3044923,4.912 17.3102769,2.944 C15.3160615,0.976 12.9238154,0 10.1213538,0 C7.31483077,0 4.92258462,0.976 2.9568,2.944 C0.988984615,4.912 0,7.244 0,10 C0,10.38 0.0142153846,10.76 0.0548307692,11.14 C0.0548307692,11.208 0.109661538,11.344 0.109661538,11.398 C0.138092308,11.71 0.190892308,12.022 0.261969231,12.334 L0.288369231,12.414 C0.302584615,12.47 0.219323077,12.17 0.3168,12.496 C0.412246154,12.808 0.521907692,13.12 0.631569231,13.432 L0.631569231,13.488 C0.631569231,13.528 0.645784615,13.542 0.688430769,13.542 C0.810276923,13.882 0.948369231,14.206 1.11489231,14.532 C1.11489231,14.572 1.12707692,14.586 1.16769231,14.586 C1.52713846,15.278 1.95156923,15.888 2.43286154,16.512 L2.46129231,16.54 L2.48769231,16.568 L3.23095385,17.3 L3.38326154,17.45 L3.58836923,17.652 L3.75286154,17.762 L4.26055385,18.154 L4.34381538,18.236 C4.38443077,18.276 4.41286154,18.29 4.45550769,18.29 C4.72966154,18.522 4.94898462,18.806 5.11550769,19.118 C5.22516923,19.362 5.37544615,19.592 5.56836923,19.798 C5.72067692,19.932 5.98061538,20 6.36646154,20 L13.9696615,20 C14.3555077,20 14.6154462,19.932 14.7657231,19.796 C14.9180308,19.66 15.0419077,19.43 15.1921846,19.118 C15.3444923,18.806 15.5638154,18.534 15.8806154,18.29 L15.9618462,18.236 L16.0735385,18.156 L16.5812308,17.762 C16.5812308,17.694 16.6787077,17.652 16.7457231,17.652 C16.8838154,17.516 16.8980308,17.436 17.0361231,17.34 C17.0909538,17.3 17.1173538,17.286 17.1173538,17.286 C17.3820196,17.0592444 17.6303712,16.8146557 17.8606154,16.554 L17.8870154,16.526 L17.9154462,16.5 C18.1632,16.2 18.3825231,15.888 18.6018462,15.564 C18.8089846,15.252 19.0161231,14.924 19.1806154,14.572 C19.2212308,14.572 19.2354462,14.56 19.2354462,14.518 C19.3857231,14.246 19.5096,13.908 19.6619077,13.528 L19.7167385,13.474 L19.7167385,13.42 C19.8264,13.108 19.9360615,12.796 20.0335385,12.484 C20.0335385,12.416 20.0193231,12.334 20.0883692,12.334 L20.2508308,11.398 C20.2508308,11.33 20.2386462,11.194 20.3076923,11.138 C20.2792615,10.758 20.2934769,10.366 20.2934769,10 Z M13.9128,10.56 L9.85126154,13.764 C9.4261173,14.0790022 8.84065193,14.0790022 8.41550769,13.764 C8.01747692,13.45 8.01747692,12.948 8.41550769,12.634 L10.7407385,10.798 L7.10972308,10.798 C6.69544615,10.798 6.32787692,10.61 6.16947692,10.308 C6.00904615,10.008 6.10449231,9.668 6.39286154,9.44 L10.4544,6.236 C10.8791315,5.92199982 11.4633915,5.92199982 11.8881231,6.236 C12.2861538,6.55 12.2861538,7.052 11.8881231,7.366 L9.56289231,9.202 L13.1959385,9.202 C13.6102154,9.202 13.9757538,9.39 14.1341538,9.692 C14.2945846,9.992 14.2153846,10.332 13.9107692,10.56 L13.9128,10.56 Z M13.5330462,22 L6.76246154,22 C6.36646154,22 6.09027692,22.426 6.09027692,23 C6.09027692,23.574 6.37661538,24 6.76246154,24 L13.5452308,24 C13.9310769,24 14.2174154,23.574 14.2174154,23 C14.2174154,22.426 13.9310769,22 13.5350769,22 L13.5330462,22 Z" id="形状"></path>
            </g>
        </g>
    </g>
</svg>