<?xml version="1.0" encoding="UTF-8"?>
<svg width="22px" height="22px" viewBox="0 0 22 22" version="1.1" xmlns="http://www.w3.org/2000/svg" xmlns:xlink="http://www.w3.org/1999/xlink">
    <title>消 息</title>
    <g id="用户端" stroke="none" stroke-width="1" fill="none" fill-rule="evenodd">
        <g id="移动端" transform="translate(-1988.000000, -1398.000000)" fill="#E40212" fill-rule="nonzero">
            <g id="消-息" transform="translate(1988.000000, 1398.000000)">
                <path d="M19.9569571,0.000761087031 L2.12444729,0.000761087031 C1.56005657,-0.00382410766 1.01744484,0.217539507 0.618347073,0.615188984 C0.219249306,1.01283846 -0.0029205419,1.55348111 0.00168135264,2.1158237 L0.00168135264,15.5703732 C-0.0213026068,16.1457498 0.192157076,16.7055909 0.592771231,17.1206255 C0.993385385,17.5356602 1.54651799,17.7700056 2.12444729,17.7695501 L5.77597218,17.7695501 L5.77597218,20.8159726 C5.76902906,21.1321599 5.89210428,21.4374344 6.11664446,21.6609725 C6.34118464,21.8845105 6.64767391,22.0068834 6.96500693,21.9997007 C7.27656472,21.9776784 7.57346352,21.8593498 7.81431747,21.6612093 L11.7201506,17.7695501 L19.8715157,17.7695501 C20.4360826,17.7744095 20.9789589,17.5531669 21.3782788,17.1554873 C21.7775988,16.7578077 22,16.2170079 21.9953024,15.6544875 L21.9953024,2.11584913 C22.033796,1.5587518 21.8343831,1.01136271 21.4462052,0.60857493 C21.0580273,0.205787147 20.5171847,-0.0149402744 19.9569571,0.000786514569 L19.9569571,0.000761087031 Z M13.6730545,12.5229336 L4.50251678,12.5229336 C3.89273715,12.5229336 3.39841309,12.0304034 3.39841309,11.4228366 C3.39841309,10.8152698 3.89273715,10.3227396 4.50251678,10.3227396 L13.6730545,10.3227396 C14.2828341,10.3227396 14.7771582,10.8152698 14.7771582,11.4228366 C14.7771582,12.0304034 14.2828341,12.5229336 13.6730545,12.5229336 L13.6730545,12.5229336 Z M17.5798829,7.4455628 L4.50149598,7.4455628 C4.20640456,7.45453578 3.92069544,7.34167855 3.71193474,7.13368023 C3.50317403,6.92568191 3.38989915,6.64101222 3.39889797,6.34699145 C3.40795762,5.74308742 3.89643878,5.25538725 4.50251678,5.2463859 L17.5788876,5.2463859 C18.1859609,5.25640435 18.6744421,5.74311285 18.684497,6.34699145 C18.6938271,6.64172386 18.5802739,6.92715293 18.3708126,7.13547348 C18.1613514,7.34379404 17.874676,7.456414 17.5788876,7.44657991 L17.5798829,7.4455628 Z" id="形状"></path>
            </g>
        </g>
    </g>
</svg>