<?xml version="1.0" encoding="UTF-8"?>
<svg width="30px" height="30px" viewBox="0 0 30 30" version="1.1" xmlns="http://www.w3.org/2000/svg" xmlns:xlink="http://www.w3.org/1999/xlink">
    <title>全景@1x</title>
    <g id="用户端" stroke="none" stroke-width="1" fill="none" fill-rule="evenodd">
        <g id="移动端" transform="translate(-491.000000, -4973.000000)" fill="#EB0818" fill-rule="nonzero">
            <g id="编组-9" transform="translate(491.000000, 4973.000000)">
                <g id="全景漫游" transform="translate(1.000000, 4.000000)">
                    <path d="M26.3660704,0 L2.6339296,0 C1.18077702,0.00362157076 0.00367888496,1.16238142 0,2.592895 L0,20.407105 C0.00367888496,21.8376186 1.18077702,22.9963784 2.6339296,23 L26.3660704,23 C27.819223,22.9963784 28.9963211,21.8376186 29,20.407105 L29,2.592895 C28.9963211,1.16238142 27.819223,0.00362157076 26.3660704,0 Z M20.1209463,4.283054 C20.6541701,3.75893681 21.4892013,3.67852992 22.1154876,4.09099549 C22.7417739,4.50346106 22.9849397,5.29395709 22.6963091,5.97916079 C22.4076786,6.6643645 21.6676147,7.05349593 20.9286051,6.90863349 C20.1895954,6.76377104 19.6574132,6.12524848 19.6574132,5.38346942 C19.6567929,4.97002939 19.8236161,4.5734013 20.1209463,4.28140668 L20.1209463,4.283054 Z M23.6350837,14.6019195 C23.5939454,15.11735 23.1562432,15.5144806 22.6310444,15.5128921 L17.8049625,15.5128921 C17.5444819,15.5127128 17.2942671,15.4128867 17.1071552,15.2344936 L12.0451241,10.3633434 L6.84420081,15.4815929 C6.65454574,15.6658871 6.39824525,15.7683988 6.1317619,15.7665695 C5.86527856,15.7646909 5.61047546,15.6586234 5.42348529,15.4717089 C5.04038752,15.0787839 5.05236079,14.4548234 5.45025967,14.0764217 L11.3305828,8.2877095 C11.7205855,7.91313692 12.3428883,7.91313692 12.7328909,8.2877095 L18.2115984,13.5591606 L22.6193306,13.5591606 C22.8980548,13.5541938 23.1663299,13.6635257 23.3599279,13.8609811 C23.5535259,14.0584364 23.6550173,14.3262384 23.6401039,14.6002722 L23.6350837,14.6019195 Z" id="形状"></path>
                </g>
            </g>
        </g>
    </g>
</svg>