<?xml version="1.0" encoding="UTF-8"?>
<svg width="30px" height="30px" viewBox="0 0 30 30" version="1.1" xmlns="http://www.w3.org/2000/svg" xmlns:xlink="http://www.w3.org/1999/xlink">
    <title>全景@1x</title>
    <g id="用户端" stroke="none" stroke-width="1" fill="none" fill-rule="evenodd">
        <g id="移动端" transform="translate(-533.000000, -4973.000000)" fill="#EB0818" fill-rule="nonzero">
            <g id="编组-10" transform="translate(533.000000, 4973.000000)">
                <g id="ppt" transform="translate(2.000000, 2.000000)">
                    <path d="M21.1139136,0 L3.94711145,0 C1.75427176,0 0,1.75427176 0,3.94711145 L0,21.0512611 C0,23.3067533 1.75427176,25.0610251 3.94711145,25.0610251 L21.0512611,25.0610251 C23.2441008,25.0610251 24.9983725,23.3067533 24.9983725,21.1139136 L24.9983725,3.94711145 C25.0610251,1.75427176 23.3067533,0 21.1139136,0 Z M16.1017086,13.8462164 L9.33523185,13.9088689 C9.02196904,13.9088689 8.83401135,14.1594792 8.83401135,14.4100894 L8.83401135,17.3547599 C8.83401135,17.9186329 8.39544341,18.3572813 7.83157034,18.3572813 C7.56467858,18.3606012 7.30772337,18.2560794 7.11898708,18.0673431 C6.93025079,17.8786069 6.82572903,17.6216516 6.82912934,17.3547599 L6.82912934,14.0968266 C6.82912934,12.8437754 7.83157034,11.8413344 9.0846216,11.8413344 L16.1017086,11.8413344 C16.9161919,11.8413344 17.5427176,11.2774613 17.5427176,10.5882831 C17.5427176,9.89910492 16.9161919,9.33523185 16.1017086,9.33523185 L7.76891778,9.33523185 C7.50202602,9.33863216 7.24507081,9.2341104 7.05633452,9.04537411 C6.86759823,8.85663782 6.76307647,8.59968261 6.76639633,8.33279085 C6.76639633,7.76891778 7.20504472,7.33034984 7.76891778,7.33034984 L16.1017086,7.33034984 C17.9812855,7.33034984 19.5475996,8.77135879 19.5475996,10.5256305 C19.5475996,12.4052074 17.9812855,13.8462164 16.1017086,13.8462164 L16.1017086,13.8462164 Z" id="形状"></path>
                </g>
            </g>
        </g>
    </g>
</svg>