<?xml version="1.0" encoding="UTF-8"?>
<svg width="30px" height="30px" viewBox="0 0 30 30" version="1.1" xmlns="http://www.w3.org/2000/svg" xmlns:xlink="http://www.w3.org/1999/xlink">
    <title>全景@1x</title>
    <g id="用户端" stroke="none" stroke-width="1" fill="none" fill-rule="evenodd">
        <g id="移动端" transform="translate(-449.000000, -4934.000000)" fill="#6D7587" fill-rule="nonzero">
            <g id="编组-8" transform="translate(449.000000, 4934.000000)">
                <g id="服务" transform="translate(2.000000, 2.000000)">
                    <path d="M4.78515625,13.6601562 L4.78515625,13.6818848 C2.05078125,14.2036621 0,16.5899414 0,19.4563477 C0,22.7047852 2.62680664,25.3300781 5.87744141,25.3300781 C9.00288086,25.3300781 11.5495605,22.8886719 11.7419922,19.8125 L11.7675781,19.8125 L11.7675781,13.6601562 L4.78515625,13.6601562 Z" id="路径"></path>
                    <path d="M20.2148438,13.6601562 L20.2148438,13.6818848 C22.9492188,14.2036621 25,16.5899414 25,19.4563477 C25,22.7047852 22.3733398,25.3300781 19.1225098,25.3300781 C15.9971191,25.3300781 13.4504395,22.8886719 13.2580078,19.8125 L13.2324219,19.8125 L13.2324219,13.6601562 L20.2148438,13.6601562 Z" id="路径"></path>
                    <path d="M4.78515625,12 L4.78515625,11.9782715 C2.05078125,11.4564941 0,9.07026367 0,6.20380859 C0,2.95537109 2.62680664,0.330126953 5.87744141,0.330126953 C9.00288086,0.330126953 11.5495605,2.77148437 11.742041,5.84765625 L11.7675781,5.84765625 L11.7675781,12 L4.78515625,12 Z" id="路径"></path>
                    <path d="M20.4123682,12 L20.4123682,11.9776568 C23.2240955,11.441119 25.3328909,8.98738488 25.3328909,6.03984117 C25.3328909,2.6995092 22.6319256,0 19.2891334,0 C16.0753292,0 13.4566069,2.51042055 13.2586814,5.6736137 L13.2324219,5.6736137 L13.2324219,12 L20.4123682,12 Z" id="路径"></path>
                </g>
            </g>
        </g>
    </g>
</svg>