<?xml version="1.0" encoding="UTF-8"?>
<svg width="80px" height="80px" viewBox="0 0 80 80" version="1.1" xmlns="http://www.w3.org/2000/svg" xmlns:xlink="http://www.w3.org/1999/xlink">
    <title>编组 67</title>
    <defs>
        <path d="M24,0 L31,0 C44.254834,-2.4348735e-15 55,10.745166 55,24 L55,31 C55,44.254834 44.254834,55 31,55 L24,55 C10.745166,55 1.623249e-15,44.254834 0,31 L0,24 C-1.623249e-15,10.745166 10.745166,2.4348735e-15 24,0 Z" id="path-1"></path>
        <filter x="-63.6%" y="-45.5%" width="227.3%" height="227.3%" filterUnits="objectBoundingBox" id="filter-2">
            <feOffset dx="0" dy="10" in="SourceAlpha" result="shadowOffsetOuter1"></feOffset>
            <feGaussianBlur stdDeviation="10" in="shadowOffsetOuter1" result="shadowBlurOuter1"></feGaussianBlur>
            <feComposite in="shadowBlurOuter1" in2="SourceAlpha" operator="out" result="shadowBlurOuter1"></feComposite>
            <feColorMatrix values="0 0 0 0 0   0 0 0 0 0   0 0 0 0 0  0 0 0 0.156518896 0" type="matrix" in="shadowBlurOuter1"></feColorMatrix>
        </filter>
    </defs>
    <g id="用户端" stroke="none" stroke-width="1" fill="none" fill-rule="evenodd">
        <g id="移动端" transform="translate(-148.000000, -3335.000000)">
            <g id="编组-68" transform="translate(148.000000, 3335.000000)">
                <g id="编组-67" transform="translate(13.000000, 12.000000)">
                    <g id="矩形">
                        <use fill="black" fill-opacity="1" filter="url(#filter-2)" xlink:href="#path-1"></use>
                        <path stroke="#DEDEDE" stroke-width="1" d="M31,0.5 C37.4893458,0.5 43.3643458,3.13032709 47.6170094,7.38299064 C51.8696729,11.6356542 54.5,17.5106542 54.5,24 L54.5,24 L54.5,31 C54.5,37.4893458 51.8696729,43.3643458 47.6170094,47.6170094 C43.3643458,51.8696729 37.4893458,54.5 31,54.5 L31,54.5 L24,54.5 C17.5106542,54.5 11.6356542,51.8696729 7.38299064,47.6170094 C3.13032709,43.3643458 0.5,37.4893458 0.5,31 L0.5,31 L0.5,24 C0.5,17.5106542 3.13032709,11.6356542 7.38299064,7.38299064 C11.6356542,3.13032709 17.5106542,0.5 24,0.5 L24,0.5 Z" stroke-linejoin="square" fill="#FFFFFF" fill-rule="evenodd"></path>
                    </g>
                    <g id="侧栏" transform="translate(16.000000, 20.000000)" fill="#000000" fill-rule="nonzero">
                        <path d="M0.961824539,1.93627827 C0.430685493,1.93627827 0,1.50276521 0,0.968139126 C0,0.433513037 0.430685493,0 0.961824539,0 L22.5927692,0 C23.1239083,0 23.5545938,0.433513037 23.5545938,0.968139126 C23.5545938,1.50276521 23.1239083,1.93627827 22.5927692,1.93627827 L0.961824539,1.93627827 Z M4.96991058,8.46808696 C4.43882337,8.46808696 4.00808604,8.03457393 4.00808604,7.49994782 C4.00808604,6.96537391 4.43882337,6.5318087 4.96991058,6.5318087 L23.0381755,6.5318087 C23.5693145,6.5318087 24,6.96537391 24,7.49994782 C24,8.03457391 23.5693145,8.46808696 23.0381755,8.46808696 L4.96991058,8.46808696 Z M9.10524816,15 C8.57416095,15 8.14342362,14.566487 8.14342362,14.0318609 C8.14342362,13.497287 8.57416095,13.0637217 9.10524816,13.0637217 L22.9745238,13.0637217 C23.505611,13.0637217 23.9363483,13.4972869 23.9363483,14.0318609 C23.9363483,14.566487 23.505611,15 22.9745238,15 L9.10524816,15 Z" id="形状"></path>
                    </g>
                </g>
            </g>
        </g>
    </g>
</svg>